<?xml version="1.0" encoding="UTF-8" standalone="no"?>
<svg width="174px" height="113px" viewBox="0 0 174 113" version="1.1" xmlns="http://www.w3.org/2000/svg" xmlns:xlink="http://www.w3.org/1999/xlink" xmlns:sketch="http://www.bohemiancoding.com/sketch/ns">
    <title>CHA Device Lab</title>
    <description>Created with Sketch (http://www.bohemiancoding.com/sketch)</description>
    <defs>
        <path id="path-1" d="M-281,-182 L455,-182 L455,292 L-281,292 L-281,292 L-281,-182"></path>
        <mask id="mask-2" sketch:name="Clip 2" fill="white">
            <use xlink:href="#path-1"></use>
        </mask>
    </defs>
    <g id="Page-1" stroke="none" stroke-width="1" fill="none" fill-rule="evenodd" sketch:type="MSPage">
        <use id="Clip-2" sketch:type="MSShapeGroup" xlink:href="#path-1"></use>
        <g id="Fill-1-+-Group" sketch:type="MSLayerGroup" mask="url(#mask-2)">
            <g sketch:type="MSShapeGroup">
                <path d="M87.0284157,0.0242059285 C87.0284157,0.0242059285 17.6394081,-0.673640768 6.51913754,5.42458775 C6.51913754,5.42458775 -0.0184659342,9.56012243 3.92110822e-05,55.9484242 C-0.0184659342,102.669789 6.51913754,106.833079 6.51913754,106.833079 C17.6394081,112.974923 87.0284157,112.27179 87.0284157,112.27179 C87.0284157,112.27179 156.37116,112.974923 167.484822,106.833079 C167.484822,106.833079 174.019782,102.669789 173.999955,55.9484242 C174.019782,9.56012243 167.484822,5.42458775 167.484822,5.42458775 C156.37116,-0.673640768 87.0284157,0.0242059285 87.0284157,0.0242059285 Z" id="Fill-1" fill="#CB0011"></path>
                <g id="Group" transform="translate(62.176630, 8.510870)">
                    <path d="M37.7676625,24.0342107 C34.5020082,30.3534771 29.4566255,27.1238308 29.4566255,27.1238308 C27.7468091,26.0161621 30.9375458,20.3854698 30.9375458,20.3854698 L32.2035522,18.4769296 L30.9282242,17.1830157 C29.7771837,18.4831206 27.1635209,20.964154 24.7223071,19.9412673 C21.4704624,18.5789087 24.4473209,14.1009417 24.4473209,14.1009417 L25.8324362,12.0128632 L24.9442639,11.0661297 C22.3114401,15.1121042 20.5134488,15.646776 18.005603,14.4780574 C15.3192665,13.2264485 18.0056028,7.40832506 18.0056028,7.40832506 L19.3284017,5.414315 L18.2344989,4.30441065 C17.5288221,3.58883705 16.3322095,3.61222518 15.5611091,4.35617409 L4.63451057,14.8999215 C3.86323751,15.6436984 3.80937959,16.8272066 4.51505646,17.5426082 L7.41941394,20.4891686 C8.71925417,18.0733124 9.77863259,16.1045821 9.77863259,16.1045821 C9.77863259,16.1045821 10.4831011,14.6684478 12.5856315,15.911974 C14.6883346,17.1553283 24.2054782,20.625886 24.2054782,20.625886 C24.2054782,20.625886 26.7217824,21.35109 25.7402563,23.1769119 C25.7402563,23.1769119 25.1257236,25.6629325 23.3815555,26.0149583 C21.6377327,26.367328 17.3665578,26.1097146 14.3575917,23.7855192 C14.3575917,23.7855192 13.9565918,25.3086712 13.5340143,26.6932141 L27.021626,40.3775058 C27.726785,41.0932514 28.9239154,41.0698632 29.6953611,40.3259143 L37.7676624,32.5364632 C37.2901912,32.2006028 33.5834888,29.3429516 38.0625,24.421298 L37.7676625,24.0342107 Z" id="Fill-4" fill="#BA242B"></path>
                    <path d="M28.1331522,9.5517585 C27.5935816,9.03820114 27.062459,8.53254203 26.5429065,8.03804348 C25.4108734,10.0196434 25.4106898,10.0198151 25.4106898,10.0198151 C25.2106924,10.3333409 25.0151026,10.6281514 24.8233696,10.90562 L26.2808346,12.2934783 L28.1331522,9.5517585 L28.1331522,9.5517585 L28.1331522,9.5517585 L28.1331522,9.5517585 Z M4.93539672,15.0798213 L15.9714785,4.45845767 C16.7503052,3.70902007 17.9589077,3.68545938 18.6716554,4.40613909 L19.9437217,5.69331462 L21.75,2.9777727 C21.7245447,2.95178666 21.6973459,2.92441469 21.6718907,2.89860188 C20.9495537,2.16787424 20.2913779,1.50211171 19.7102654,0.914480564 C19.0283779,0.169200734 18.0267303,-0.053413069 17.3312434,0.0103393665 C15.8532683,0.157073912 15.3410245,0.974075232 15.3248099,0.904432626 C15.3246355,0.904605867 13.4135721,2.74303208 10.4513454,5.592662 C8.97040635,7.01756358 7.22672008,8.69522278 5.32786125,10.5222151 C4.37834466,11.4357113 3.38994775,12.3866274 2.37644427,13.3619704 C1.86315437,13.8678321 1.37130965,14.3023188 0.824021262,14.8825006 C0.238201258,15.52297 -0.0836510419,16.4258985 0.0188674589,17.3248425 C0.0532146436,18.2444021 0.837097602,19.0546471 1.30052307,19.4828971 L2.85242303,21.0534938 C3.86610086,22.0794229 4.87803517,23.1036197 5.87654445,24.1141304 C6.48851713,22.9799261 7.12960646,21.7913243 7.72536449,20.6872638 L4.81474569,17.7420052 C4.10199802,17.0213255 4.15639559,15.8292589 4.93539672,15.0798213 C4.93539672,15.0798213 4.15639559,15.8292589 4.93539672,15.0798213 L4.93539672,15.0798213 L4.93539672,15.0798213 Z M40.3309384,38.7717391 C40.2228761,38.4089803 40.1421608,38.2024539 40.1176313,37.8462939 C40.1055323,37.6595641 40.0103977,37.0640617 39.6479248,36.7473166 C39.3123018,36.4032842 38.8240324,36.3467481 38.8367944,36.3342637 C38.8424295,36.3522768 38.3750434,36.1969361 37.9305293,36.3677931 C37.4720931,36.4979867 37.1338183,36.9779199 37.0433243,37.1387893 C36.8699605,37.4442986 36.7105189,37.5867983 36.4610805,37.8571731 C36.3750616,37.4862103 36.377382,37.2024594 36.583728,36.824006 C36.6859894,36.6308556 37.121885,35.9957602 37.7652868,35.8054634 C38.3919488,35.5811022 38.9488345,35.7826349 38.9443595,35.7594497 C38.9315975,35.7785329 39.5206367,35.8252599 40.0152041,36.3092951 C40.5376159,36.7801325 40.6509819,37.5736006 40.6602633,37.792433 C40.6831354,38.2311678 40.5641343,38.4833512 40.3309384,38.7717391 C40.3309384,38.7717391 40.5641343,38.4833512 40.3309384,38.7717391 L40.3309384,38.7717391 L40.3309384,38.7717391 Z M39.5911365,40.0349623 C39.4850512,40.1441634 39.0705976,40.3872703 38.653295,40.4171663 C38.2381711,40.4599517 37.8790227,40.3435898 37.8798607,40.3471702 C37.8818718,40.3448429 37.5131707,40.2755629 37.1610611,40.0367525 C36.7945387,39.8140537 36.5408053,39.3811875 36.4913659,39.2324233 C36.3733815,38.9606735 36.3996934,38.7721673 36.4511439,38.5353261 C36.5744912,38.749611 36.637338,38.8808314 36.7410771,39.1080056 C36.7211337,39.4961172 37.8999716,40.1663617 37.9447186,40.061278 C37.9422047,40.1873068 39.2655064,40.1373607 39.4292432,39.796868 C39.6248224,39.6491779 39.7453206,39.5732741 39.9538043,39.4569122 C39.883416,39.689457 39.8143683,39.8598824 39.5911365,40.0349623 C39.5911365,40.0349623 39.8143683,39.8598824 39.5911365,40.0349623 L39.5911365,40.0349623 L39.5911365,40.0349623 Z M48.8900855,31.0769075 C47.6103259,29.6743476 46.1963355,28.3121283 44.6150304,26.7146739 L42.6587748,29.7507735 C42.6587748,29.7507735 39.7117265,34.604754 37.7728744,33.3196415 C37.7728744,33.3196415 37.6893032,33.2663647 37.557657,33.1623642 L29.8844414,40.5041864 C29.1143801,41.2405303 27.9193979,41.2638496 27.2155043,40.5550802 L13.7557147,27.0142498 C13.5751319,27.5936568 13.3935153,28.1352764 13.2406748,28.5105974 C12.8571088,29.4506869 12.6315527,29.9397105 12.0570652,30.5102665 C15.4517795,33.9244104 18.2235867,36.7113173 19.6370602,38.1300474 C22.3564846,40.8599328 24.521582,42.9659853 26.6065545,44.9290585 C27.6492131,45.9106802 28.6715388,46.8565571 29.733324,47.8267745 C30.2178647,48.2941809 30.8841943,48.9140988 31.7071553,48.9295882 C32.5018573,48.9922268 33.3155134,48.6800551 33.8719082,48.0952013 C38.7771075,43.8996068 42.0727424,41.015508 47.6494407,35.6919082 C47.9973382,35.311651 48.5480466,34.9741175 49.0499908,34.1211773 C49.5045493,33.3315565 49.6089702,32.0874655 48.8900855,31.0769075 C48.8900855,31.0769075 49.6089702,32.0874655 48.8900855,31.0769075 L48.8900855,31.0769075 L48.8900855,31.0769075 Z M40.1902174,22.0141548 C39.856448,21.6916604 39.5210299,21.3674276 39.182864,21.0407609 L37.5896739,24.0647318 L37.8853401,24.3505435 L40.1902174,22.0141548 L40.1902174,22.0141548 L40.1902174,22.0141548 L40.1902174,22.0141548 Z M34.5163043,16.0028234 C33.9730481,15.4744612 33.4303351,14.9466178 32.8899762,14.4211957 C32.4932181,15.1794085 31.4166653,16.540525 30.9701087,17.0932732 L32.5982476,18.6766304 L34.5163043,16.0028234 L34.5163043,16.0028234 Z" id="Fill-26" fill="#FFFFFF"></path>
                    <path id="Fill-28" fill="#FFFFFF" d="M41.3973424,39.2953354 L41.3739375,39.2479081 L41.3722826,39.2445652 C41.4994728,40.1101648 41.4075082,39.4835818 41.4363505,39.6762159 L41.436587,39.672873 L41.4380054,39.6659783 L41.4403696,39.6519799 L41.4715761,39.4637334 L41.4306766,39.3667896 L41.3973424,39.2953354"></path>
                    <path d="M38.8414019,47.1213548 C37.4019097,49.7736839 35.3857287,51.7477397 35.4123161,51.75553 C35.4081993,51.7517214 34.9448928,52.2667451 34.1690559,53.0125342 L34.0964981,53.0840316 L34.0594473,53.1202131 C34.0838048,53.0310577 33.6776182,54.0600665 33.8498358,53.6260616 L33.8880874,54.3344573 C33.9052405,54.6526468 33.9237659,54.9902254 33.9428059,55.3421727 C33.9814005,56.0464136 34.0232542,56.8077832 34.0664801,57.5869838 C34.2388692,60.7037864 34.4373312,64.1036357 34.5114328,65.2351299 C34.6484864,67.3239624 34.9301411,68.4997746 35.452626,70.2146739 C35.7145546,68.4428191 35.8582979,67.2486564 35.7402843,65.1598239 C35.6766461,64.0293684 35.4783557,60.6321159 35.3035651,57.5165251 C35.2596531,56.7376707 35.2169417,55.9764743 35.1774895,55.2729258 C35.1579349,54.9211516 35.139238,54.583573 35.1215702,54.2655567 L35.0978989,53.8393421 C35.8522943,53.1072293 36.3042798,52.6041506 36.3077104,52.6079592 C36.2812946,52.5949754 38.3755224,50.5681189 39.9282254,47.7217254 C40.7032046,46.307877 41.2982473,44.683518 41.5056289,43.2237935 C41.6569196,42.2254265 41.6224418,41.3281599 41.5251834,40.6630435 C41.0846906,40.9647868 40.6935988,41.3162148 40.3724919,41.7386208 C40.3467622,43.1985184 39.9229079,45.330284 38.8414019,47.1213548 Z" id="Fill-29" fill="#FFFFFF"></path>
                    <path id="Fill-30" fill="#FFFFFF" d="M35.1843927,53.5892137 L35.1831975,53.5575233 C35.3541104,53.0422987 34.9496223,54.2551212 34.9923078,54.1293818 L34.9948689,54.1265195 L34.999479,54.1207947 L35.0092113,54.1097542 L35.0472868,54.0651832 L35.1220718,53.9778812 C35.1483661,53.9480309 35.1731237,53.9192029 35.1985643,53.8899659 L35.1966861,53.8476439 L35.1843927,53.5892137"></path>
                    <path d="M28.1817713,5.87898589 C28.2586674,5.58130477 28.342887,5.12194159 28.3695652,4.53157804 C28.368519,4.38006576 28.3697396,4.22545084 28.3582313,4.05446087 C28.3472462,3.95948559 28.3475949,3.89588146 28.3251015,3.77039689 C28.2180398,3.57475816 28.5455021,4.09496757 28.0916233,3.3710181 L28.0138553,3.31155082 L27.9170813,3.23881114 C27.6590172,3.04679216 27.3842139,2.84942975 27.0942406,2.64706863 C26.5144683,2.2418293 25.876806,1.81435438 25.2142091,1.38481103 C24.5707926,0.975779583 23.4665226,0.312676347 22.2991315,1.02162972 C22.0478678,1.19572233 21.853971,1.4132519 21.7146513,1.66732369 C21.689368,1.74816472 21.5237188,1.96500482 21.4368837,2.10462364 C21.2269451,2.41902455 21.0220632,2.72566886 20.8253765,3.02041972 C20.4320032,3.60957669 20.0705392,4.1508151 19.7640009,4.61035064 C19.150227,5.52959409 18.7544125,6.12271554 18.7544125,6.12271554 C18.8660078,6.13926296 16.7748171,8.34093118 16.1286108,11.7410805 C16.0049841,12.5646592 16.0456118,13.6935033 16.8541544,14.481574 C17.7512757,15.1943195 18.3899842,15.2948105 19.2129993,15.5145809 C20.858332,15.8715569 22.195034,15.0593546 22.6429844,14.6975522 C24.4482122,13.2134558 24.8196152,11.9648154 25.4436768,10.2981803 C24.1605057,11.5473378 23.3821287,12.5177749 21.9007015,13.7014322 C21.4930301,13.9994581 20.6415931,14.5422478 19.4543241,14.2917958 C18.9359292,14.1935455 18.0306126,13.8770762 17.7261667,13.5816358 C17.3737698,13.254652 17.2705442,12.6060277 17.3755135,11.9163797 C17.888503,9.06022668 19.8714114,6.83149654 19.7985257,6.80495173 C19.7985257,6.80495173 20.1953864,6.21251975 20.8103809,5.29413814 C21.1179653,4.83494734 21.4799525,4.29439841 21.8741976,3.70558617 C22.071233,3.41118006 22.2764637,3.10470812 22.486751,2.79047958 C22.5990438,2.60914747 22.6825658,2.52796171 22.8218856,2.2595833 C22.8668724,2.17460542 22.9427223,2.09479861 23.0150849,2.04584584 C23.6189199,1.5530431 25.3055777,2.9988736 26.3659071,3.6638729 C26.6482082,3.8607182 27.0973792,4.10289654 27.1033077,4.15115983 L27.1122004,4.50262006 C27.0905789,4.96698193 27.0258885,5.35222647 26.9617212,5.60319562 C26.4965084,7.44116542 25.8598923,8.54725678 25.4436768,10.2981803 C26.5564909,8.9081973 27.5674742,8.11426605 28.1817713,5.87898589 Z" id="Fill-31" fill="#FFFFFF"></path>
                    <path d="M34.4907797,12.5485198 C34.5723241,12.2690987 34.6763635,11.8423778 34.7282074,11.2897449 C34.7514054,11.0111862 34.7670465,10.7100324 34.7329525,10.3564439 C34.7280317,10.3100462 34.7255713,10.2715827 34.7178386,10.2175958 L34.7030763,10.1304923 C34.5997399,9.96197718 34.9299595,10.4825284 34.4723268,9.75810325 L34.4273368,9.7237793 L34.2322629,9.57889428 L33.8294618,9.28826182 C33.2788615,8.89672729 32.6720237,8.48863448 32.0425151,8.07622961 C31.4451674,7.71073989 30.7149586,7.09256379 29.6155154,7.0923913 C29.0592913,7.100153 28.4742455,7.41338062 28.1770655,7.84838066 C28.0956968,7.96446116 28.0375261,8.04742508 27.9652961,8.21869988 C28.0420954,8.05518678 27.9016774,8.29942153 27.8812913,8.3190845 L27.5941286,8.74597787 C27.2185675,9.30430266 26.8737613,9.81726464 26.5809748,10.2527821 C25.9955775,11.1238171 25.6179075,11.686109 25.6179075,11.686109 C25.6179075,11.686109 25.2391831,12.2473659 24.6522041,13.117711 C24.0764727,13.9473502 23.1663038,15.2578697 22.819213,16.8479829 C22.6473371,17.6372613 22.5933843,18.6000568 23.0703486,19.4602254 C23.5764861,20.3090101 24.4165339,20.7669503 25.1850545,20.9358103 C26.8045189,21.2957806 27.9974569,20.6332766 28.4995524,20.3962861 C30.3970409,19.299472 31.0476385,18.2117994 31.8031543,16.6901617 C30.4316621,17.7160856 29.5125304,18.3967003 27.9120462,19.3006793 C27.4871016,19.5097277 26.5352818,19.9773269 25.4899672,19.7255029 C24.3214573,19.5140398 23.6810528,18.4618985 24.0599529,17.1106732 C24.3587147,15.7794558 25.0931413,14.6821243 25.7070088,13.8019477 C26.2925818,12.9307403 26.6702518,12.3686209 26.6702518,12.3686209 C26.6702518,12.3686209 27.0489763,11.8071914 27.6359552,10.9368464 C27.9294447,10.5018464 28.2749539,9.98940184 28.6512179,9.43142202 L28.9387321,9.00487361 C29.01518,8.87947907 28.974935,8.97865632 29.1482168,8.66680856 C29.1436476,8.67474274 29.1817836,8.60574987 29.2055088,8.57660038 C29.3250135,8.41912416 29.4587533,8.35133867 29.6617356,8.33736761 C30.5838549,8.37997071 32.0579805,9.66427295 33.0846664,10.2983174 L33.4709477,10.5763587 C33.4709477,10.5763587 33.4837769,10.964616 33.4651482,11.1848758 C33.4247275,11.6298798 33.3400198,11.9914024 33.2720076,12.2292553 C32.7512834,13.9530421 32.1903143,15.0291584 31.8031543,16.6899892 C32.8997856,15.381367 33.8212019,14.6295172 34.4907797,12.5485198 Z" id="Fill-32" fill="#FFFFFF"></path>
                    <path d="M41.4741999,18.516346 C41.5274305,18.1915138 41.6254867,17.7117994 41.6062256,17.0705448 L41.5923927,16.8187736 L41.5792602,16.6849161 L41.566828,16.6015179 C41.4575654,16.3919714 41.7857035,16.9207436 41.3307927,16.1847025 L40.9151044,15.870733 C40.6454498,15.6732757 40.3574097,15.4663572 40.0534354,15.2547082 C39.428152,14.8245771 38.8196782,14.3939203 38.0415321,13.9215645 C37.6300462,13.6978263 37.153598,13.4844252 36.5533539,13.4761905 C35.9452303,13.4577938 35.2751211,13.8336111 34.9809525,14.3595799 C33.2131391,17.103834 31.5213192,19.6229481 31.5330509,19.6197944 C31.5566894,19.6027994 29.6766367,22.1578308 28.9244054,25.6079905 C28.8655717,26.0666802 28.7801227,26.5278228 28.9119733,27.092337 C28.9405147,27.6198828 29.6263828,28.3419073 30.0100278,28.4321385 C30.8335249,28.8361639 31.7044742,29.0430824 32.5283215,29.0740939 C34.2075341,29.1450524 35.466681,28.3967469 35.9783243,28.0140966 C37.9042534,26.4735089 38.2682871,25.0371688 38.6717183,23.2255371 C37.5435466,24.728806 36.8126776,25.7681289 35.2495565,26.989491 C34.8252883,27.2976786 33.8715165,27.8627185 32.5741978,27.8084046 C31.9366573,27.785803 31.2222477,27.6169043 30.5705241,27.296277 C30.0476744,27.130532 30.0779667,26.6213829 30.1714703,25.8192891 C30.8487586,22.7568607 32.5827777,20.2941629 32.5817271,20.3130852 C32.5791006,20.301872 34.2453558,17.8323412 36.0565941,15.0250129 C36.4286825,14.1220004 38.2197843,15.5352133 39.3292203,16.2931551 C39.6261905,16.4997232 39.9060009,16.7005094 40.1656748,16.8899073 C40.293323,16.9846938 40.3441021,17.1143464 40.3441021,17.1143464 C40.3616121,17.5928344 40.2822916,18.0036928 40.2416684,18.2701814 C39.8002403,20.2223284 39.1222516,21.3785138 38.6717183,23.2255371 C39.815474,21.7527542 40.8841117,20.9024787 41.4741999,18.516346 Z" id="Fill-33" fill="#FFFFFF"></path>
                    <path d="M41.9576275,21.8725572 C42.1533693,21.746682 42.4519586,21.5413792 42.83314,21.3911577 C42.83314,21.3911577 42.8961755,21.3978918 43.0187543,21.4648871 C43.2644356,21.6011225 43.5267052,21.7494447 43.7996263,21.9093356 C44.8448632,22.5036603 46.5359958,23.4500558 45.9293882,23.9083177 C44.2909889,26.4000955 42.9340667,28.5532705 42.9162561,28.5688106 C42.8691104,28.4880018 41.6778965,31.0308894 39.5666436,32.5153196 C38.9951334,32.8385549 38.6488746,32.9036509 38.2565179,32.5778256 C37.7686475,32.1953651 37.3691316,31.7044688 37.1187358,31.222206 C36.6015303,30.2431761 36.7049015,29.3088674 36.7908114,28.8704623 C37.1918988,27.2270044 37.7359948,26.2674861 38.5016754,24.8089561 C37.1609922,25.7398115 36.1051039,26.5256254 35.5604841,28.6339066 C35.4417468,29.1838555 35.2994368,30.4773145 35.9971927,31.7946017 C36.3362923,32.4422809 36.8341156,33.0545631 37.4772174,33.5601362 C37.7798228,33.8267362 38.4007487,34.0807314 38.9125411,34.0389456 C39.4236351,33.9850731 39.874662,33.8098147 40.2188254,33.5829284 C42.8752219,31.6683811 43.8799485,29.1532932 43.9733668,29.2342746 C43.9648107,29.2565489 45.4123574,26.9837147 46.9334163,24.6628786 C47.2814212,24.238805 47.391777,23.5521028 47.1616363,23.0287449 C46.9416232,22.5167831 46.5834907,22.2054619 46.2506772,21.9499127 C45.5726526,21.4907874 45.016683,21.1765309 44.4401089,20.8337841 C44.1596795,20.6699218 43.8885046,20.5169376 43.6314734,20.3750042 L43.2516888,20.1710828 L43.2134484,20.1513986 C43.0196274,20.125671 43.6323464,20.2016451 42.7821529,20.0951087 L42.693973,20.1182463 C42.6464781,20.1320597 42.6146984,20.1439739 42.5750612,20.156924 C42.4985804,20.1817882 42.4255919,20.2075158 42.3623818,20.2361788 C41.8312073,20.4504603 41.477964,20.6999661 41.2347273,20.8602024 C39.5093704,22.1875044 39.2345286,23.3521528 38.5016754,24.8089561 C39.8582483,23.8242282 40.567878,22.8921642 41.9576275,21.8725572 Z" id="Fill-34" fill="#FFFFFF"></path>
                    <path d="M14.3044752,54.9204293 C14.3788506,54.1392278 14.4485667,53.1300391 14.6083615,51.5859441 C14.4665134,49.8869215 13.499289,48.4711557 12.7318943,46.8267118 C11.1023671,43.61002 9.04298158,39.5509846 6.43691148,36.4389597 C5.38547557,34.7351009 4.51540502,34.1713508 3.78528434,32.4787187 C3.58165815,32.0109996 3.32350155,30.2772607 3.39373533,29.9886497 C3.53264981,29.3936377 3.79615591,29.0015688 4.13351963,28.3680408 C5.56304451,25.8351378 6.52940609,22.934001 6.52819814,22.9338283 C6.52819814,22.9338283 7.44555138,21.7773115 8.89112476,19.2492446 C9.25195727,18.6174438 9.64540449,17.9295097 10.0647364,17.1971873 C10.5441208,16.2973288 10.6833804,16.0584604 11.4393857,16.1639909 C12.0796003,16.2741847 12.9931571,16.4697009 13.9191386,16.8641878 C14.8290715,17.3027177 15.7652343,17.7288119 16.7139943,18.1533517 C18.612032,19.0008768 20.5613213,19.8394205 22.4607395,20.6446298 C23.3541063,21.07746 24.495966,21.388697 25.0590442,21.822909 C25.6882146,22.3958131 25.4771682,22.5341599 25.0863094,23.6846315 C24.7846666,24.4483886 24.3290961,25.1176691 23.8038096,25.4016168 C23.3596284,25.6537844 22.4933542,25.66812 21.8719492,25.6743378 C20.5394056,25.657066 19.4653638,25.4399601 18.7719993,25.2662062 C17.4824243,24.946506 16.3954401,24.4720509 15.4684233,23.9169366 C15.3479732,23.8535493 15.2444344,23.7697813 15.13244,23.6986216 L14.9683311,23.5884278 L14.886363,23.5336764 C13.0766783,24.0853363 14.3419218,23.6601056 13.9508904,23.79258 L13.7610694,24.607116 C13.639584,25.1264777 13.5212047,25.6316766 13.4026528,26.1289304 C12.8754681,28.0885838 12.6882355,30.1181879 10.7299728,31.5627975 C12.9205074,30.4891852 13.603518,28.2310758 14.2775552,26.3828252 C14.4478764,25.8938618 14.6121579,25.3957444 14.774196,24.8819096 C15.8534148,25.5537809 17.0560173,26.1094133 18.4655247,26.4640025 C19.2275698,26.656928 20.386686,26.8954509 21.8609051,26.9166952 C22.6165653,26.8733431 23.3689469,26.9856095 24.4124448,26.4881829 C25.3436032,25.9558674 25.87631,25.0551453 26.2509477,24.1383605 C26.3251505,23.961325 26.4609588,23.5354035 26.4540562,23.5310856 C26.5815814,23.2649278 26.6930581,22.9619813 26.7089341,22.6130918 C26.7710573,21.8878508 26.3187656,21.2109706 25.8433502,20.8525817 C24.8022681,20.1168049 23.9004457,19.9760401 22.9506503,19.498476 C21.0565816,18.6958575 19.1122967,17.8599046 17.2263385,17.0182519 C16.2837908,16.5971665 15.3547032,16.1743539 14.4644426,15.7460144 C13.5455363,15.3791623 12.8763309,15.2321796 11.6668258,14.9432231 C11.0989158,14.8221481 10.3725916,14.9143793 9.86231815,15.3335648 C9.30752306,15.8100926 9.21399307,16.2532858 8.9815486,16.5833491 C8.56273439,17.3161897 8.16980487,18.0044692 7.80879979,18.6367881 C6.36477949,21.1660641 5.44777138,22.3241353 5.44759882,22.3241353 C5.44828908,22.3248262 4.4819275,25.2238904 3.04757081,27.7618022 C2.71918044,28.413811 2.23530939,29.0098593 1.95592736,30.058773 C1.87171585,30.5874615 1.81338902,31.1123501 2.15679251,31.7792126 C2.22840681,32.0068544 2.47310337,32.5735407 2.63721227,32.9633642 C3.38407172,34.694685 4.25776612,35.2800248 5.37684734,37.097359 C8.07782796,40.3606845 9.93065372,44.0932837 11.6136759,47.3851077 C12.4076455,49.0229883 13.3056715,50.5111228 13.3621001,51.647777 C13.2095531,52.8557636 13.1374211,54.1081386 13.0668422,54.8145535 C12.6066125,60.3309796 9.54945859,68.819184 13.7317334,68.036428 C14.4898096,63.4576855 13.8247457,60.4344374 14.3044752,54.9204293 Z" id="Fill-35" fill="#FFFFFF"></path>
                    <path d="M13.2391304,48.701087 C13.2391304,48.701087 15.4980361,54.3105579 19.8586957,55.7934783" id="Fill-36" fill="#FFFFFF"></path>
                    <path d="M13.2391304,48.701087 C13.2408593,49.2050721 13.2847719,49.5476112 13.5473831,50.0493754 C13.7500034,50.6435654 15.5601016,53.1465778 15.6195737,53.1050631 C15.5455793,53.1679331 17.8160682,55.3225978 18.4814997,55.5002739 C18.9856302,55.7936104 19.3625178,55.793952 19.8586957,55.7934395 C19.4932183,55.4237365 19.2489329,55.2470854 18.7859489,54.9660496 C18.1856947,54.8047744 16.028445,52.7739704 16.0917206,52.7075127 C16.0379536,52.7509067 14.3028873,50.3353656 14.0957719,49.7627018 C13.8333336,49.2812678 13.6054722,49.0514848 13.2391304,48.701087" id="Fill-37" fill="#FFFFFF"></path>
                    <path d="M13.4755435,54.611413 C13.4755435,54.611413 14.1414677,58.7687903 17.7309783,59.1032609" id="Fill-38" fill="#FFFFFF"></path>
                    <path d="M25.2961957,23.3530219 C25.0013796,23.1449331 24.8016762,23.0337551 24.451156,23.0095709 C24.0439341,23.0621151 22.2314721,22.6690776 22.2801924,22.5730366 C22.287675,22.5685129 21.8505225,22.4037469 21.5535448,22.0427232 C21.2455925,21.6910947 21.161787,21.1526038 21.1661103,20.971309 C21.1353483,20.6398631 21.0816396,20.4416915 20.9256681,20.0951087 C20.7071749,20.3712266 20.5447185,20.5925385 20.5706583,21.012718 C20.5595175,21.2242866 20.666935,21.962167 21.1020921,22.4569871 C21.5221177,22.953721 22.0450712,23.1343198 22.0357595,23.1428452 C22.0219581,23.2658543 24.0269734,23.7063903 24.4192301,23.6331416 C24.7847156,23.6482785 24.9920679,23.5437121 25.2961957,23.3530219" id="Fill-44" fill="#FFFFFF"></path>
                    <path d="M27.401774,18.9130435 C27.8199796,18.6821139 28.0946521,18.5183951 28.4140426,18.0710121 C28.5699695,17.8252617 29.1353929,17.1012802 29.2861278,16.1773895 C29.4790685,15.166297 28.6481842,14.4588597 28.6719668,14.5393404 C28.6557209,14.5598483 28.0774013,13.9432318 27.0969545,13.9484019 C26.0813361,14.0350867 25.508041,14.9229592 25.333021,15.117526 C24.9977196,15.562841 24.9344109,15.8759747 24.8233696,16.350759 C25.2424126,16.111385 25.4901203,15.9025143 25.802644,15.5037299 C25.9642654,15.3022697 26.5062411,14.5919027 27.1331309,14.5696714 C27.7590157,14.5500252 28.3204195,15.0475578 28.2906075,15.0175714 C28.3058485,14.9986145 28.8121503,15.3970543 28.6877102,16.0865687 C28.5873878,16.7702237 28.0722094,17.4871394 27.9251591,17.7111756 C27.6334033,18.1363273 27.5203521,18.4353294 27.401774,18.9130435" id="Fill-45" fill="#FFFFFF"></path>
                    <path d="M20.0729696,13.0027174 C20.4911753,12.7717878 20.7658478,12.6080691 21.0852383,12.1606861 C21.2411652,11.9149356 21.8065886,11.1909541 21.9573235,10.2670634 C22.1502642,9.25597091 21.3193799,8.54853361 21.3431625,8.6290143 C21.3269166,8.64952223 20.748597,8.03290575 19.7681501,8.03807581 C18.7525318,8.12476058 18.1792367,9.01263316 18.0042167,9.20719996 C17.6689153,9.65251494 17.6056066,9.96564857 17.4945652,10.4404329 C17.9136083,10.2010589 18.161316,9.99218824 18.4738397,9.59340385 C18.635461,9.39194363 19.1774368,8.68157663 19.8043265,8.65934535 C20.4302114,8.6396991 20.9916152,9.13723174 20.9618031,9.10724536 C20.9770441,9.08828845 21.4833459,9.48672817 21.3589059,10.1762426 C21.2585834,10.8598976 20.743405,11.5768133 20.5963547,11.8008495 C20.3045989,12.2260012 20.1915477,12.5250033 20.0729696,13.0027174" id="Fill-45" fill="#FFFFFF"></path>
                    <path d="M34.0212673,27.6603261 C34.4394612,27.4295685 34.7141261,27.2656773 35.0335077,26.8182937 C35.1895977,26.5727153 35.7550053,25.8485606 35.9057361,24.9246687 C36.0985039,23.913575 35.2678102,23.2063092 35.2914247,23.2867899 C35.2750118,23.3072979 34.6968758,22.6910253 33.7164563,22.6956784 C32.7008663,22.7821909 32.1275871,23.6704093 31.9527395,23.864804 C31.6174474,24.3101195 31.5539731,24.6232535 31.4429348,25.0978661 C31.8619661,24.8588365 32.1096669,24.6499656 32.4223494,24.2510084 C32.5837988,24.0495479 33.1257594,23.33918 33.7527991,23.3169487 C34.378499,23.2976471 34.9400547,23.795008 34.9102435,23.7650216 C34.9253165,23.746237 35.4317717,24.1446772 35.3071677,24.8340201 C35.2070155,25.5175036 34.6918514,26.2345926 34.5446378,26.4584567 C34.2528901,26.8837813 34.1398421,27.1827838 34.0212673,27.6603261" id="Fill-46" fill="#FFFFFF"></path>
                    <path d="M39.4591764,32.388587 C39.8773552,32.1574848 40.1520101,31.993766 40.4712127,31.5463826 C40.627297,31.3008043 41.1926842,30.5766498 41.343242,29.6529307 C41.5360028,28.641665 40.7051718,27.9343995 40.7289529,28.0148802 C40.7125405,28.0353882 40.1344255,27.4191158 39.1542089,27.4239412 C38.1384882,27.5104537 37.5652298,28.3984994 37.3903885,28.5930664 C37.0551086,29.0382094 36.991804,29.3513433 36.8804348,29.8259557 C37.2996185,29.5869261 37.5473103,29.3780553 37.859814,28.9790982 C38.0214249,28.7776379 38.5633659,28.0672703 39.1902155,28.0452113 C39.8160602,28.0257374 40.3774281,28.5230981 40.3479529,28.493284 C40.362858,28.4743271 40.8691273,28.8727671 40.7450302,29.5621098 C40.6445467,30.245593 40.1294013,30.9626817 39.9823604,31.1865457 C39.6906233,31.6118701 39.5775794,31.9108725 39.4591764,32.388587" id="Fill-47" fill="#FFFFFF"></path>
                    <path d="M9.8230745,68.3545258 C9.73164255,68.5083789 9.64696409,68.6689213 9.58064129,68.831048 L9.52747914,68.9553275 L9.50133099,69.0188755 L9.48817033,69.0505615 C9.63501559,69.3957628 9.15638315,68.2862249 9.81839901,69.8221154 L9.84298866,69.8390146 L10.0681052,69.9868826 C10.3754759,70.190025 10.7237139,70.3646501 11.1218239,70.5392751 C11.9802107,70.9409831 14.6289667,71.7963289 17.1059416,72.2209212 C19.5777214,72.6838888 21.8513987,72.8562254 21.8510524,72.8553452 C21.8503597,72.8583378 24.1204005,73.0771472 26.6328744,73.0491579 C29.1448289,73.0537347 31.8926363,72.6877615 32.7998561,72.4627909 C34.4662381,72.0980499 35.4004718,71.5078103 36.4076087,70.4236212 C34.9561264,70.6265876 34.0712451,70.6246512 32.5016632,70.9517211 C31.6628443,71.1479982 29.0509726,71.4988326 26.6176358,71.4986566 C24.1882818,71.5291103 21.9783298,71.3231514 21.9802346,71.3198067 C21.98162,71.321039 19.7688973,71.1462379 17.3805838,70.6955927 C14.9803218,70.279978 12.4761598,69.4661761 11.698815,69.1142856 C11.3351651,68.9606085 10.8440647,68.8988208 10.8612082,68.7602826 C10.9154093,68.2105306 11.0485744,67.7285514 11.5486795,67.1413043 C10.843372,67.2458681 10.1626542,67.7130605 9.8230745,68.3545258 Z" id="Fill-48" fill="#FFFFFF"></path>
                    <path d="M7.38790666,71.4390084 C7.27563339,71.6905978 7.21048276,72.4976151 7.70884045,73.0107954 C8.13562169,73.4806933 8.61577291,73.7364213 9.11216716,74.0093932 C9.36384493,74.1468275 9.62052056,74.2716738 9.88754889,74.4080735 C9.88754889,74.4080735 9.52716774,74.7596779 9.19124039,75.116283 C9.15197151,75.1592205 9.11181017,75.2075036 9.07736065,75.2316451 L9.02524015,75.2776865 L8.99971538,75.3011383 C8.72840317,74.1194096 9.33796317,76.9412114 9.27620395,76.6508231 C9.37491161,76.6941054 9.47950961,76.7154879 9.5493011,76.7499759 C9.6678217,76.8348161 9.75367774,76.8686143 9.78080896,76.9769064 C9.88701341,77.1614168 9.85988219,77.5994134 9.7827724,77.9537768 C9.63408617,78.6812995 9.43756331,79.2243118 9.44862999,79.218104 C9.45523431,79.2212079 9.27673943,79.7207654 9.06932839,80.6069325 C8.87780338,81.6362246 8.89154749,82.5632599 8.59899439,83.7375736 C8.1283034,86.0161906 7.26046132,88.4382773 6.94488238,89.2164973 C6.36352457,90.6739568 6.25339324,91.5356375 5.91032609,92.9103261 C7.09249764,92.0651996 7.7802384,91.2669766 8.4035425,89.7579576 C8.75071503,88.9342136 9.64729479,86.4362535 10.1397622,84.0412398 C10.4326722,82.8948613 10.4735476,81.532071 10.6027779,80.9150821 C10.7757394,80.1649698 10.9558407,79.6371322 10.9497719,79.6371322 C10.9410256,79.6262685 11.1289807,79.1470588 11.3226477,78.2305423 C11.3904757,77.7770262 11.5562975,77.1745222 11.2134088,76.3573309 C11.0566903,75.9452002 11.1739615,75.013509 11.4759748,74.6370733 L11.5257749,74.5743053 C11.7467515,75.6206689 11.2376841,73.1328827 11.2885552,73.3886106 L11.2507143,73.3701596 L11.2003787,73.3455007 L10.999929,73.2473826 L10.6058123,73.0549399 C10.354313,72.9263 10.1013858,72.8033506 9.87791017,72.6812633 C9.42274824,72.4470903 9.04237566,72.1884309 8.92331958,72.049617 C8.83639257,71.9414974 8.88048081,72.009611 8.88672813,71.8659689 C9.39401056,70.7601137 9.92235539,69.6771929 10.0929965,68.3233696 C8.99596699,69.3364523 8.23843474,69.6389113 7.38790666,71.4390084 Z" id="Fill-50" fill="#FFFFFF"></path>
                    <path d="M35.1226998,73.6653366 C34.824898,75.241765 34.0648815,83.3618417 34.2583282,83.431347 C34.2681166,83.4377126 34.2359308,83.9426583 34.3434381,84.8190444 C34.4894356,85.9218388 35.1560469,86.8345259 35.7621025,87.7623528 C36.4209162,88.7132335 36.7528946,89.4277273 36.4006756,89.8779633 C36.2414056,90.1530598 35.9733011,90.41921 35.723944,90.6196399 C35.5990166,90.7209731 35.4807254,90.8109515 35.3743795,90.8871665 L35.2237367,90.9915965 L35.1276769,91.0585211 C35.2312024,89.9686299 34.9664161,92.5577022 34.9939565,92.2913799 C35.4228242,92.7343902 35.5918826,92.998648 35.7949519,93.4827764 C35.9855782,93.9534856 36.2233218,94.6027752 36.7246905,95.0380435 C36.6661256,94.3557217 36.8537656,93.9263028 36.8939149,93.3091852 C36.9642592,92.7018741 36.508017,91.9868642 36.6687801,91.8573159 C36.9859929,91.5958108 37.3758726,91.2525854 37.7136577,90.6838119 C38.0756652,90.1322426 38.180352,89.173276 37.9112521,88.5017929 C37.6738402,87.8217076 37.3186349,87.3260523 37.0136992,86.8598162 C36.4043256,85.9813656 35.867287,85.0805494 35.8467146,84.5971091 C35.759448,83.9182282 35.7801862,83.4062288 35.7732182,83.4141427 C35.5819283,83.4605943 36.3494106,75.4759152 36.6246491,73.8710999 C36.7983529,72.3953166 36.6596553,71.5115327 36.3087636,70.2146739 C35.6983945,71.3947156 35.3209577,72.1845641 35.1226998,73.6653366 Z" id="Fill-51" fill="#FFFFFF"></path>
                    <path d="M9.25336663,79.7652659 C9.18837251,80.3344859 9.19793568,80.6712524 9.47314237,80.8609924 C9.74427585,81.1020945 11.3794003,81.9355385 11.3786919,81.9355385 C11.3776293,81.9351855 13.0649969,82.6828493 13.4411482,82.7248569 C13.7698377,82.812755 14.0363667,82.6021878 14.4211957,82.1821122 C14.2917387,81.6045966 14.2088579,81.2872455 13.9219629,81.1861096 C13.5943359,81.1269814 12.0778656,80.4790413 12.0764489,80.4815124 C12.0771572,80.4785118 10.6111592,79.7061377 10.3379006,79.4989239 C10.0701319,79.3437784 9.77190278,79.4846273 9.25336663,79.7652659" id="Fill-53" fill="#FFFFFF"></path>
                    <path d="M12.7663043,75.6951773 C13.5252946,76.3351986 14.1125097,76.730541 15.2274927,76.9675417 C16.4226604,77.3946207 22.5580043,77.8135096 22.5405503,77.7341681 C22.5205041,77.803272 28.6705371,77.8556544 29.9094262,77.4084415 C31.0418631,77.1840672 31.633917,76.7859947 32.388587,76.1446084 C31.3724525,76.0845477 30.7581059,76.0649256 29.6956578,76.259099 C28.5820573,76.6617784 22.5949861,76.6355018 22.5835805,76.5665686 C22.5605965,76.6430094 16.6025576,76.2130297 15.4720216,75.8243418 C14.4012786,75.6143001 13.7774273,75.6305097 12.7663043,75.6951773" id="Fill-54" fill="#FFFFFF"></path>
                    <path d="M39.3520673,22.4592391 L37.8081479,23.6864924 L37.1168478,25.0597826 L38.1037997,25.0597826 L39.4809783,23.3926104" id="Fill-77" fill="#FFFFFF"></path>
                </g>
            </g>
        </g>
    </g>
</svg>