<?xml version="1.0" encoding="UTF-8" standalone="no"?>
<svg width="225px" height="45px" viewBox="0 0 225 45" version="1.1" xmlns="http://www.w3.org/2000/svg" xmlns:xlink="http://www.w3.org/1999/xlink" xmlns:sketch="http://www.bohemiancoding.com/sketch/ns">
    <title>Slice 1</title>
    <description>Created with Sketch (http://www.bohemiancoding.com/sketch)</description>
    <defs>
        <path id="path-1" d="M0,0.0185294118 L69.8085606,0.0185294118 L69.8085606,44.9682353 L0,44.9682353"></path>
        <mask id="mask-2" sketch:name="Clip 2" fill="white">
            <use xlink:href="#path-1"></use>
        </mask>
    </defs>
    <g id="Page-1" stroke="none" stroke-width="1" fill="none" fill-rule="evenodd" sketch:type="MSPage">
        <g id="Group" sketch:type="MSLayerGroup" transform="translate(0.000000, -1.000000)">
            <g id="EasyBlog-Icon-RGB-300RV" transform="translate(0.000000, 1.000000)">
                <g>
                    <g id="Clip-2"></g>
                    <path d="M67.194697,2.19123529 C62.7359091,-0.251470588 34.9156818,0.0280588235 34.9156818,0.0280588235 C34.9156818,0.0280588235 7.07689394,-0.251470588 2.61545455,2.19123529 C2.61545455,2.19123529 -0.00742424242,3.84776471 -3.76802945e-15,22.4290588 C-0.00742424242,41.1437647 2.61545455,42.8114118 2.61545455,42.8114118 C7.07689394,45.2715882 34.9156818,44.9899412 34.9156818,44.9899412 C34.9156818,44.9899412 62.7359091,45.2715882 67.194697,42.8114118 C67.194697,42.8114118 69.8165152,41.1437647 69.8085606,22.4290588 C69.8165152,3.84776471 67.194697,2.19123529 67.194697,2.19123529" id="Fill-1" fill="#83BE42" sketch:type="MSShapeGroup" mask="url(#mask-2)"></path>
                    <path d="M35.0429545,10.5850588 C33.4515152,9.71311765 23.5173485,9.81264706 23.5173485,9.81264706 C23.5173485,9.81264706 13.5773485,9.71311765 11.9843182,10.5850588 C11.9843182,10.5850588 11.047803,11.1774706 11.0499242,17.8125882 C11.047803,24.4953529 11.9843182,25.0898824 11.9843182,25.0898824 C12.6047727,25.4318824 14.4926515,25.6251176 16.5661364,25.7336471 C16.1933333,26.7967059 15.3639394,28.5855882 13.6913636,29.9424706 C13.6913636,29.9424706 18.2206818,28.9392353 21.4295455,25.866 C22.6683333,25.8765882 23.5173485,25.8681176 23.5173485,25.8681176 C23.5173485,25.8681176 25.4985606,25.8877059 27.8324242,25.8310588 C27.8191667,25.2831176 27.8096212,24.7060588 27.8096212,24.066 C27.8064394,16.2762353 28.9057576,15.5816471 28.9057576,15.5816471 C29.7940152,15.0956471 32.8893939,14.8685294 35.8956818,14.7605294 C35.6687121,10.9858235 35.0429545,10.5850588 35.0429545,10.5850588" id="Fill-4" fill="#FFFFFF" sketch:type="MSShapeGroup" mask="url(#mask-2)"></path>
                    <path d="M57.6630303,17.262 C56.8882576,16.8384706 54.4308333,16.6102941 51.8201515,16.4885294 C52.4512121,15.0739412 53.5298485,13.2649412 55.3143182,11.8180588 C55.3143182,11.8180588 50.1518182,12.9578824 45.92,16.3535294 C44.8339394,16.3482353 44.1312879,16.3561765 44.1312879,16.3561765 C44.1312879,16.3561765 32.4603788,16.2391765 30.5894697,17.262 C30.5894697,17.262 29.4901515,17.9576471 29.4933333,25.7474118 C29.4901515,33.5922353 30.5894697,34.2910588 30.5894697,34.2910588 C32.4603788,35.3234118 44.1312879,35.2042941 44.1312879,35.2042941 C44.1312879,35.2042941 55.7942424,35.3234118 57.6630303,34.2910588 C57.6630303,34.2910588 58.7618182,33.5922353 58.7586364,25.7474118 C58.7618182,17.9576471 57.6630303,17.262 57.6630303,17.262" id="Fill-5" fill="#FFFFFF" sketch:type="MSShapeGroup" mask="url(#mask-2)"></path>
                </g>
            </g>
            <path d="M89.9443687,19.0602941 C89.8647396,13.5588235 87.8341969,11 84.2508863,11 C80.8666485,11 78,13.4735294 78,18.975 C78,22.8132353 79.5129534,26.5235294 84.091628,26.5235294 C86.4008726,26.5235294 88.7101173,25.6279412 89.7452959,22.2161765 L87.4758658,21.7470588 C87.1175348,22.8985294 86.5203163,24.6897059 84.2508863,24.6897059 C80.4685029,24.6897059 80.5083174,20.3397059 80.5083174,19.0602941 L89.9443687,19.0602941 L89.9443687,19.0602941 Z M80.6277611,17.2691176 C80.8268339,15.1794118 81.543496,12.8338235 83.9721843,12.8338235 C86.5203163,12.8338235 87.276793,15.0514706 87.276793,17.2691176 L80.6277611,17.2691176 L80.6277611,17.2691176 Z M95.3193346,15.1367647 C95.5184074,14.5397059 95.9961822,12.8338235 98.5044996,12.8338235 C101.490592,12.8338235 101.490592,15.4352941 101.490592,16.4588235 L101.490592,17.0985294 C100.933188,17.0132353 100.296155,16.9705882 99.38042,16.9705882 C96.7526588,16.9705882 94.7619307,17.525 93.5674939,18.8470588 C92.7712026,19.7 92.373057,20.8941176 92.373057,22.0882353 C92.373057,24.8176471 94.284156,26.5235294 97.0711753,26.5235294 C100.017453,26.5235294 101.052632,24.6470588 101.689665,23.4955882 C101.689665,24.5617647 101.729479,25.0308824 101.888737,26.0970588 L104.158167,26.0970588 C103.91928,24.9455882 103.879466,24.3485294 103.879466,21.4058824 L103.879466,17.0985294 C103.879466,15.4352941 103.879466,13.6441176 102.923916,12.5779412 C102.08781,11.6397059 100.614671,11 98.6637578,11 C97.0711753,11 96.0359967,11.4264706 95.5980365,11.6397059 C93.4878647,12.6205882 93.1693482,14.0705882 92.9702754,14.7955882 L95.3193346,15.1367647 L95.3193346,15.1367647 Z M101.490592,18.8044118 C101.610035,20.3823529 101.610035,21.4911765 100.813744,22.8132353 C100.176711,23.8794118 99.1415326,24.6897059 97.5489501,24.6897059 C95.6776657,24.6897059 94.8813744,23.6661765 94.8813744,22.1735294 C94.8813744,19.7852941 96.3545132,18.6338235 99.6591219,18.6338235 C100.415599,18.6338235 100.813744,18.6764706 101.490592,18.8044118 L101.490592,18.8044118 Z M117.496046,14.7529412 C117.137715,13.6867647 116.301609,11 112.399782,11 C108.736842,11 107.184074,13.6441176 107.184074,15.3926471 C107.184074,16.2029412 107.462776,16.9279412 107.940551,17.5676471 C108.736842,18.5911765 109.85165,18.975 112.55904,19.7426471 C113.992364,20.1691176 115.704391,20.6382353 115.704391,22.3014706 C115.704391,23.325 114.82847,24.6897059 112.519226,24.6897059 C109.41369,24.6897059 108.975729,22.6426471 108.776657,21.875 L106.586856,22.3014706 C106.825743,23.4102941 107.542405,26.5235294 112.359967,26.5235294 C116.421053,26.5235294 118.172893,24.1352941 118.172893,22.0029412 C118.172893,19.0602941 115.306245,18.2073529 113.235888,17.6102941 C110.608127,16.8852941 109.493319,16.5867647 109.493319,15.0941176 C109.493319,14.0279412 110.409054,12.8338235 112.280338,12.8338235 C114.470139,12.8338235 115.146987,14.5823529 115.385874,15.2220588 L117.496046,14.7529412 L117.496046,14.7529412 Z M119.407145,11.4264706 L123.90619,25.4147059 L121.318244,34.4132353 L123.587674,34.4132353 L130.873739,11.4264706 L128.604309,11.4264706 L125.060813,22.3867647 L121.756204,11.4264706 L119.407145,11.4264706 L119.407145,11.4264706 Z M144.729206,14.5823529 L144.729206,21.7470588 C144.331061,21.0220588 143.494955,19.4441176 140.74775,19.4441176 C137.443142,19.4441176 135.054268,21.6191176 135.054268,26.6941176 C135.054268,28.8691176 135.571857,34.7117647 140.668121,34.7117647 C143.53477,34.7117647 144.569948,33.0911765 144.968094,32.3661765 L144.968094,34.4132353 L147.11808,34.4132353 L147.11808,14.5823529 L144.729206,14.5823529 L144.729206,14.5823529 Z M144.729206,28.1441176 C144.729206,29.5941176 144.689392,30.8308824 143.893101,31.7264706 C143.295882,32.4514706 142.300518,32.8779412 141.305154,32.8779412 C138.518135,32.8779412 137.682029,30.3617647 137.682029,26.9926471 C137.682029,24.2632353 138.279247,21.2779412 141.18571,21.2779412 C142.061631,21.2779412 143.096809,21.6191176 143.853286,22.5573529 C144.729206,23.7088235 144.729206,24.9455882 144.729206,25.7132353 L144.729206,28.1441176 L144.729206,28.1441176 Z M162.56613,27.3764706 C162.486501,21.875 160.455959,19.3588235 156.832833,19.3588235 C153.448596,19.3588235 150.621762,21.7897059 150.621762,27.2911765 C150.621762,31.1294118 152.134715,34.8397059 156.71339,34.8397059 C159.022634,34.8397059 161.331879,33.9867647 162.327243,30.5323529 L160.097627,30.0632353 C159.739296,31.2147059 159.142078,33.0058824 156.832833,33.0058824 C153.090265,33.0058824 153.090265,28.6558824 153.090265,27.3764706 L162.56613,27.3764706 L162.56613,27.3764706 Z M153.249523,25.5852941 C153.448596,23.4955882 154.165258,21.15 156.593946,21.15 C159.142078,21.15 159.85874,23.3676471 159.85874,25.5852941 L153.249523,25.5852941 L153.249523,25.5852941 Z M175.147532,23.0691176 C174.789201,22.0029412 173.953095,19.3588235 170.051268,19.3588235 C166.388328,19.3588235 164.83556,21.9602941 164.83556,23.7088235 C164.83556,24.5191176 165.114262,25.2441176 165.592037,25.8838235 C166.388328,26.9073529 167.503136,27.2911765 170.210526,28.1014706 C171.643851,28.4852941 173.355877,28.9544118 173.355877,30.6176471 C173.355877,31.6411765 172.479956,33.0058824 170.170712,33.0058824 C167.065176,33.0058824 166.587401,30.9588235 166.428143,30.1911765 L164.238342,30.6176471 C164.477229,31.7264706 165.193891,34.8397059 169.971639,34.8397059 C174.072539,34.8397059 175.82438,32.4514706 175.82438,30.3191176 C175.82438,27.3764706 172.957731,26.5235294 170.887374,25.9264706 C168.259613,25.2441176 167.144805,24.9029412 167.144805,23.4102941 C167.144805,22.3441176 168.020725,21.15 169.931824,21.15 C172.121625,21.15 172.798473,22.8985294 173.03736,23.5382353 L175.147532,23.0691176 L175.147532,23.0691176 Z M178.571584,34.4132353 L180.960458,34.4132353 L180.960458,19.7426471 L178.571584,19.7426471 L178.571584,34.4132353 Z M196.727025,17.4823529 C194.85574,17.4397059 193.502045,17.4397059 192.944641,19.9558824 C192.387238,19.7426471 191.590946,19.3588235 190.277066,19.3588235 C187.529861,19.3588235 184.9021,21.3632353 184.9021,24.3911765 C184.9021,26.6088235 186.096537,27.675 186.773384,28.2720588 C185.419689,28.7838235 184.703027,29.6367647 184.703027,30.9588235 C184.703027,32.2808824 185.578947,32.8779412 186.176166,33.2617647 C185.539133,33.475 184.065994,33.9867647 184.065994,36.1617647 C184.065994,39.6161765 188.405781,40 190.436324,40 C192.028906,40 197.244614,39.7867647 197.244614,35.7352941 C197.244614,32.2808824 194.457595,32.1529412 191.113172,32.025 C187.808563,31.8544118 186.892828,31.8117647 186.892828,30.5323529 C186.892828,29.5514706 187.649305,29.3382353 188.246523,29.1676471 C188.803927,29.2955882 189.361331,29.4235294 190.237251,29.4235294 C194.099264,29.4235294 195.612217,26.5661765 195.612217,24.3911765 C195.612217,22.6426471 194.736297,21.5338235 194.377966,21.1073529 C194.497409,20.1264706 194.85574,19.2735294 196.089992,19.2735294 C196.289065,19.2735294 196.408508,19.2735294 196.727025,19.3161765 L196.727025,17.4823529 L196.727025,17.4823529 Z M190.396509,21.15 C192.347423,21.15 193.183529,22.9411765 193.183529,24.4338235 C193.183529,26.6088235 191.750205,27.7176471 190.237251,27.7176471 C189.082629,27.7176471 187.410417,26.9926471 187.410417,24.4338235 C187.410417,23.6235294 187.569675,21.15 190.396509,21.15 L190.396509,21.15 Z M187.848377,33.7735294 C192.307608,33.9014706 192.825198,33.9441176 193.422416,34.0720588 C194.616853,34.4132353 194.815926,35.2235294 194.815926,35.8632353 C194.815926,38.0382353 191.989092,38.2514706 190.595582,38.2514706 C188.166894,38.2514706 186.494682,37.7397059 186.494682,35.7779412 C186.494682,34.5838235 187.370603,34.0720588 187.848377,33.7735294 L187.848377,33.7735294 Z M199.076084,34.4132353 L201.425143,34.4132353 L201.425143,26.5235294 C201.425143,22.3867647 202.977911,21.15 204.88901,21.15 C207.357513,21.15 207.357513,22.9411765 207.357513,25.3720588 L207.357513,34.4132353 L209.746387,34.4132353 L209.746387,25.0735294 C209.746387,23.4529412 209.706572,22.2161765 209.268612,21.3205882 C208.671394,20.1264706 207.238069,19.3588235 205.406599,19.3588235 C202.579765,19.3588235 201.703845,21.15 201.265885,22.0029412 L201.265885,19.7426471 L199.076084,19.7426471 L199.076084,34.4132353 L199.076084,34.4132353 Z M223.323152,23.0691176 C223.004636,22.0029412 222.16853,19.3588235 218.266703,19.3588235 C214.563949,19.3588235 213.011181,21.9602941 213.011181,23.7088235 C213.011181,24.5191176 213.329697,25.2441176 213.807472,25.8838235 C214.563949,26.9073529 215.678756,27.2911765 218.425961,28.1014706 C219.859286,28.4852941 221.531497,28.9544118 221.531497,30.6176471 C221.531497,31.6411765 220.655577,33.0058824 218.346332,33.0058824 C215.280611,33.0058824 214.802836,30.9588235 214.643578,30.1911765 L212.453777,30.6176471 C212.692664,31.7264706 213.369512,34.8397059 218.187074,34.8397059 C222.248159,34.8397059 224,32.4514706 224,30.3191176 C224,27.3764706 221.173166,26.5235294 219.102809,25.9264706 C216.475048,25.2441176 215.36024,24.9029412 215.36024,23.4102941 C215.36024,22.3441176 216.23616,21.15 218.147259,21.15 C220.33706,21.15 220.974093,22.8985294 221.252795,23.5382353 L223.323152,23.0691176 L223.323152,23.0691176 Z M179.766021,14.5397059 C180.482683,14.5397059 181.040087,15.1367647 181.040087,15.9044118 C181.040087,16.6294118 180.482683,17.2691176 179.766021,17.2691176 C179.049359,17.2691176 178.491955,16.6294118 178.491955,15.9044118 C178.491955,15.1367647 179.049359,14.5397059 179.766021,14.5397059 L179.766021,14.5397059 Z" id="Fill-5" fill="#4B524E" sketch:type="MSShapeGroup"></path>
            <text id="THE" sketch:type="MSTextLayer" font-family="Gill Sans" font-size="10" font-weight="normal" fill="#4A514D">
                <tspan x="78" y="9">THE</tspan>
            </text>
            <text id="BLOG" sketch:type="MSTextLayer" font-family="Gill Sans" font-size="10" font-weight="normal" fill="#4A514D">
                <tspan x="198" y="44">BLOG</tspan>
            </text>
        </g>
    </g>
</svg>