<?xml version="1.0" encoding="UTF-8" standalone="no"?>
<svg width="174px" height="113px" viewBox="0 0 174 113" version="1.1" xmlns="http://www.w3.org/2000/svg" xmlns:xlink="http://www.w3.org/1999/xlink" xmlns:sketch="http://www.bohemiancoding.com/sketch/ns">
    <title>CHA Device Lab</title>
    <description>Created with Sketch (http://www.bohemiancoding.com/sketch)</description>
    <defs>
        <path id="path-1" d="M-281,-181 L455,-181 L455,293 L-281,293 L-281,293 L-281,-181"></path>
        <mask id="mask-2" sketch:name="Clip 2" fill="white">
            <use xlink:href="#path-1"></use>
        </mask>
    </defs>
    <g id="Page-1" stroke="none" stroke-width="1" fill="none" fill-rule="evenodd" sketch:type="MSPage">
        <use id="Clip-2" sketch:type="MSShapeGroup" xlink:href="#path-1"></use>
        <g id="Fill-1-+-Group" sketch:type="MSLayerGroup" mask="url(#mask-2)" fill="#2E8691">
            <path d="M87.0284157,0.0242059285 C87.0284157,0.0242059285 17.6394081,-0.673640768 6.51913754,5.42458775 C6.51913754,5.42458775 -0.0184659342,9.56012243 3.92110822e-05,55.9484242 C-0.0184659342,102.669789 6.51913754,106.833079 6.51913754,106.833079 C17.6394081,112.974923 87.0284157,112.27179 87.0284157,112.27179 C87.0284157,112.27179 156.37116,112.974923 167.484822,106.833079 C167.484822,106.833079 174.019782,102.669789 173.999955,55.9484242 C174.019782,9.56012243 167.484822,5.42458775 167.484822,5.42458775 C156.37116,-0.673640768 87.0284157,0.0242059285 87.0284157,0.0242059285 Z" id="Fill-1" sketch:type="MSShapeGroup"></path>
        </g>
        <path d="M57,55.994 C83.588,48.539 87.575,14 87.575,14 C87.575,14 93.779,50.311 118.151,55.991 C93.779,59.174 87.575,99.313 87.575,99.313 C87.575,99.313 82.702,61.833 57,55.994 Z" id="Shape" fill="#FFFFFF" sketch:type="MSShapeGroup" mask="url(#mask-2)"></path>
    </g>
</svg>