<?xml version="1.0" encoding="UTF-8" standalone="no"?>
<svg width="540px" height="108px" viewBox="0 0 540 108" version="1.1" xmlns="http://www.w3.org/2000/svg" xmlns:xlink="http://www.w3.org/1999/xlink" xmlns:sketch="http://www.bohemiancoding.com/sketch/ns">
    <title>Slice 1</title>
    <description>Created with Sketch (http://www.bohemiancoding.com/sketch)</description>
    <defs>
        <path d="M0,0.624 L539.846,0.624 L539.846,107.94 L0,107.94 L0,107.94 L0,0.624" id="path-1" stroke="none" sketch:type="MSShapeGroup"></path>
        <mask id="mask-2" fill="white">
            <use xlink:href="#path-1"></use>
        </mask>
        <path d="M0,0.624 L539.846,0.624 L539.846,107.94 L0,107.94 L0,107.94 L0,0.624" id="path-3" stroke="none" sketch:type="MSShapeGroup"></path>
        <mask id="mask-4" fill="white">
            <use xlink:href="#path-3"></use>
        </mask>
    </defs>
    <g id="Page-1" stroke="none" stroke-width="1" fill="none" fill-rule="evenodd" sketch:type="MSPage">
        <g id="EasyBlog-RGB-300RV" sketch:type="MSLayerGroup">
            <g id="Group-3">
                <use id="Clip-2" xlink:href="#path-1"></use>
                <path d="M126.711,13.033 C118.302,8.419 65.842,8.947 65.842,8.947 C65.842,8.947 13.345,8.419 4.932,13.033 C4.932,13.033 -0.014,16.162 -7.10542736e-15,51.26 C-0.014,86.61 4.932,89.76 4.932,89.76 C13.345,94.407 65.842,93.875 65.842,93.875 C65.842,93.875 118.302,94.407 126.711,89.76 C126.711,89.76 131.654,86.61 131.639,51.26 C131.654,16.162 126.711,13.033 126.711,13.033" id="Fill-1" fill="#83BE42" sketch:type="MSShapeGroup" mask="url(#mask-2)"></path>
            </g>
            <path d="M66.081,28.888 C63.08,27.241 44.347,27.429 44.347,27.429 C44.347,27.429 25.603,27.241 22.599,28.888 C22.599,28.888 20.833,30.007 20.837,42.54 C20.833,55.163 22.599,56.286 22.599,56.286 C23.769,56.932 27.329,57.297 31.239,57.502 C30.536,59.51 28.972,62.889 25.818,65.452 C25.818,65.452 34.359,63.557 40.41,57.752 C42.746,57.772 44.347,57.756 44.347,57.756 C44.347,57.756 48.083,57.793 52.484,57.686 C52.459,56.651 52.441,55.561 52.441,54.352 C52.435,39.638 54.508,38.326 54.508,38.326 C56.183,37.408 62.019,36.979 67.688,36.775 C67.261,29.645 66.081,28.888 66.081,28.888" id="Fill-4" fill="#FFFFFF" sketch:type="MSShapeGroup"></path>
            <path d="M108.735,41.5 C107.275,40.7 102.641,40.27 97.718,40.039 C98.907,37.367 100.942,33.95 104.307,31.217 C104.307,31.217 94.572,33.37 86.592,39.784 C84.545,39.774 83.219,39.789 83.219,39.789 C83.219,39.789 61.211,39.568 57.683,41.5 C57.683,41.5 55.61,42.813 55.616,57.528 C55.61,72.346 57.683,73.667 57.683,73.667 C61.211,75.616 83.219,75.391 83.219,75.391 C83.219,75.391 105.212,75.616 108.735,73.667 C108.735,73.667 110.809,72.346 110.802,57.528 C110.809,42.813 108.735,41.5 108.735,41.5" id="Fill-5" fill="#FFFFFF" sketch:type="MSShapeGroup"></path>
            <path d="M375.095,71.219 C379.041,71.645 381.387,71.965 384.375,71.965 C396.85,71.965 403.46,64.18 403.46,51.916 C403.46,39.974 399.515,34.428 390.985,34.428 C385.973,34.428 380.428,36.562 375.095,41.253 L375.095,71.219 L375.095,71.219 L375.095,71.219 L375.095,71.219 Z M366.565,2.224 L374.029,0.624 L375.095,0.624 L375.095,33.255 C380.107,29.522 385.546,26.75 392.904,26.75 C403.888,26.75 412.418,34.002 412.418,50.638 C412.418,67.485 402.822,79.643 383.733,79.643 C379.36,79.643 372.002,78.789 366.565,77.83 L366.565,2.224 L366.565,2.224 Z M366.565,2.224" id="Fill-6" fill="#83BE42" sketch:type="MSShapeGroup"></path>
            <path d="M427.24,0.624 L428.625,0.624 L428.625,78.364 L419.988,78.364 L419.988,2.224 L427.24,0.624" id="Fill-7" fill="#83BE42" sketch:type="MSShapeGroup"></path>
            <path d="M445.047,53.196 C445.047,65.887 451.017,71.965 460.508,71.965 C470,71.965 475.97,65.78 475.97,53.196 C475.97,40.507 470,34.428 460.508,34.428 C451.017,34.428 445.047,40.612 445.047,53.196 C445.047,53.196 445.047,40.612 445.047,53.196 L445.047,53.196 L445.047,53.196 Z M436.087,53.196 C436.087,38.161 443.979,26.75 460.508,26.75 C477.037,26.75 484.928,38.161 484.928,53.196 C484.928,68.233 477.037,79.643 460.508,79.643 C443.979,79.643 436.087,68.233 436.087,53.196 L436.087,53.196 Z M436.087,53.196" id="Fill-8" fill="#83BE42" sketch:type="MSShapeGroup"></path>
            <path d="M511.053,58.422 C517.345,58.422 522.785,54.37 522.785,46.052 C522.785,37.733 517.345,33.682 511.053,33.682 C504.761,33.682 499.216,37.733 499.216,46.052 C499.216,54.37 504.761,58.422 511.053,58.422 C511.053,58.422 504.761,58.422 511.053,58.422 L511.053,58.422 L511.053,58.422 Z M501.777,82.522 C499.537,84.975 498.042,88.92 498.042,92.227 C498.042,96.705 501.988,99.157 511.16,99.157 C521.291,99.157 528.542,94.678 528.542,88.282 C528.542,80.817 519.05,82.627 501.777,82.522 C501.777,82.522 519.05,82.627 501.777,82.522 L501.777,82.522 L501.777,82.522 Z M504.334,64.606 C503.163,66.526 501.563,69.405 501.563,72.071 C501.563,79.643 537.392,63.967 537.392,87.321 C537.392,97.131 530.035,106.622 509.987,106.622 C493.671,106.622 489.405,100.864 489.405,94.465 C489.405,89.346 492.817,83.801 496.23,80.922 C494.311,79.751 493.671,77.403 493.671,74.844 C493.671,71.004 495.377,66.526 498.47,62.26 C493.352,59.168 490.365,53.729 490.365,46.052 C490.365,35.708 498.897,26.75 511.053,26.75 C513.186,26.75 517.665,27.283 520.544,28.243 L539.846,28.243 L539.846,34.748 L528.221,34.748 C530.249,37.84 531.634,43.065 531.634,46.052 C531.634,58.422 522.038,65.354 511.053,65.354 C508.708,65.354 506.361,65.139 504.334,64.606 L504.334,64.606 Z M504.334,64.606" id="Fill-9" fill="#83BE42" sketch:type="MSShapeGroup"></path>
            <path d="M166.319,47.398 L192.721,47.398 L192.721,45.95 C192.721,38.932 188.934,32.916 180.69,32.916 C172.892,32.916 167.322,38.598 166.319,47.398 C166.319,47.398 167.322,38.598 166.319,47.398 L166.319,47.398 L166.319,47.398 Z M166.096,54.973 C166.765,68.565 174.674,72.018 184.366,72.018 C189.825,72.018 195.395,70.682 200.854,68.12 L200.854,76.364 C195.395,78.813 188.934,80.151 181.247,80.151 C167.768,80.151 156.627,72.241 156.627,51.854 C156.627,38.04 165.316,24.895 181.024,24.895 C196.509,24.895 202.525,36.369 202.525,47.398 C202.525,50.852 202.302,52.856 202.079,54.973 L166.096,54.973 L166.096,54.973 Z M166.096,54.973" id="Fill-10" fill="#83BE42" sketch:type="MSShapeGroup"></path>
            <path d="M238.252,54.416 L223.882,56.534 C220.094,57.09 215.861,58.649 215.861,64.664 C215.861,69.01 218.869,72.018 223.436,72.018 C228.338,72.018 233.908,68.899 238.252,65.78 L238.252,54.416 L238.252,54.416 L238.252,54.416 L238.252,54.416 Z M247.165,78.479 L239.924,79.928 L238.698,79.928 L238.698,72.575 L238.476,72.575 C233.796,76.139 228.115,79.817 220.428,79.817 C213.633,79.817 206.503,74.914 206.503,65.333 C206.503,52.411 218.089,50.629 224.328,49.737 L238.252,47.844 L238.252,44.279 C238.252,35.366 234.02,32.916 226.333,32.916 C223.436,32.916 216.195,33.808 210.291,36.48 L209.289,28.237 C214.19,26.344 221.876,24.895 228.004,24.895 C239.033,24.895 247.165,29.463 247.165,44.279 L247.165,78.479 L247.165,78.479 Z M247.165,78.479" id="Fill-11" fill="#83BE42" sketch:type="MSShapeGroup"></path>
            <g id="Group-15">
                <use id="Clip-13" xlink:href="#path-3"></use>
                <path d="M254.596,70.235 L255.487,70.235 C260.723,71.35 265.402,72.129 269.97,72.129 C276.876,72.129 281.89,70.458 281.89,64.553 C281.89,53.637 254.819,57.981 254.819,39.935 C254.819,30.131 263.954,24.895 275.429,24.895 C279.996,24.895 284.563,25.562 288.796,26.899 L288.796,35.144 L287.906,35.144 C283.115,33.585 278.994,32.916 275.317,32.916 C269.858,32.916 264.177,34.142 264.177,39.935 C264.177,50.295 291.248,46.173 291.248,63.663 C291.248,76.364 280.999,80.151 269.635,80.151 C264.065,80.151 258.495,79.372 254.596,78.479 L254.596,70.235" id="Fill-12" fill="#83BE42" sketch:type="MSShapeGroup" mask="url(#mask-4)"></path>
                <path d="M295.917,101.54 C305.609,94.631 307.902,92.373 311.579,83.348 L312.515,79.592 L312.603,79.592 L294.111,26.455 L304.359,26.455 L317.504,68.565 L318.285,68.565 L332.656,26.455 L342.792,26.455 L322.63,82.155 C317.951,95.524 312.158,101.985 302.577,108 L295.917,101.54" id="Fill-14" fill="#83BE42" sketch:type="MSShapeGroup" mask="url(#mask-4)"></path>
            </g>
        </g>
    </g>
</svg>