<?xml version="1.0" encoding="utf-8"?>
<!-- Generator: Adobe Illustrator 13.0.0, SVG Export Plug-In . SVG Version: 6.00 Build 14948)  -->
<!DOCTYPE svg PUBLIC "-//W3C//DTD SVG 1.1//EN" "http://www.w3.org/Graphics/SVG/1.1/DTD/svg11.dtd">
<svg version="1.1" id="Layer_1" xmlns="http://www.w3.org/2000/svg" xmlns:xlink="http://www.w3.org/1999/xlink" x="0px" y="0px"
	 width="265px" height="267px" viewBox="0 0 265 267" enable-background="new 0 0 265 267" xml:space="preserve">
<rect x="-124" y="-112" display="none" fill="#E8EAED" width="512" height="500"/>
<rect x="388" y="-112" display="none" fill="#3B5998" width="512" height="500"/>
<rect x="-124" y="-91.999" display="none" fill="#FFFFFF" width="1024" height="0.437"/>
<rect x="-124" y="-71.999" display="none" fill="#FFFFFF" width="1024" height="0.437"/>
<rect x="367.782" y="-112" display="none" fill="#FFFFFF" width="0.437" height="500"/>
<rect x="-104" y="-112" display="none" fill="#FFFFFF" width="0.437" height="500"/>
<rect x="407.781" y="-112" display="none" fill="#FFFFFF" width="0.437" height="500"/>
<rect x="879.562" y="-112" display="none" fill="#FFFFFF" width="0.438" height="500"/>
<rect x="-124" y="367.563" display="none" fill="#FFFFFF" width="1024" height="0.437"/>
<text transform="matrix(1 0 0 1 -96.4995 -77.9683)" display="none" fill="#333333" font-family="'Helvetica'" font-size="10">F</text>
<text transform="matrix(1 0 0 1 -90.6396 -77.9683)" display="none"><tspan x="0" y="0" display="inline" fill="#333333" font-family="'Helvetica'" font-size="10">a</tspan><tspan x="5.571" y="0" display="inline" fill="#333333" font-family="'Helvetica'" font-size="10">c</tspan><tspan x="10.702" y="0" display="inline" fill="#333333" font-family="'Helvetica'" font-size="10">e</tspan><tspan x="16.313" y="0" display="inline" fill="#333333" font-family="'Helvetica'" font-size="10">b</tspan><tspan x="21.984" y="0" display="inline" fill="#333333" font-family="'Helvetica'" font-size="10">o</tspan><tspan x="27.626" y="0" display="inline" fill="#333333" font-family="'Helvetica'" font-size="10">o</tspan><tspan x="33.228" y="0" display="inline" fill="#333333" font-family="'Helvetica'" font-size="10">k </tspan></text>
<text transform="matrix(1 0 0 1 -49.6123 -77.9683)" display="none" fill="#333333" font-family="'Helvetica'" font-size="10">“</text>
<text transform="matrix(1 0 0 1 -45.4595 -77.9683)" display="none" fill="#333333" font-family="'Helvetica'" font-size="10">f</text>
<text transform="matrix(1 0 0 1 -41.6694 -77.9683)" display="none"><tspan x="0" y="0" display="inline" fill="#333333" font-family="'Helvetica'" font-size="10">” </tspan><tspan x="6.108" y="0" display="inline" fill="#333333" font-family="'Helvetica'" font-size="10">L</tspan><tspan x="11.71" y="0" display="inline" fill="#333333" font-family="'Helvetica'" font-size="10">og</tspan><tspan x="22.973" y="0" display="inline" fill="#333333" font-family="'Helvetica'" font-size="10">o</tspan></text>
<text transform="matrix(1 0 0 1 319.6704 -77.9683)" display="none" fill="#333333" font-family="'Helvetica'" font-size="10">R</text>
<text transform="matrix(1 0 0 1 326.8105 -77.9683)" display="none"><tspan x="0" y="0" display="inline" fill="#333333" font-family="'Helvetica'" font-size="10">GB / </tspan><tspan x="22.783" y="0" display="inline" fill="#333333" font-family="'Helvetica'" font-size="10">.</tspan><tspan x="25.532" y="0" display="inline" fill="#333333" font-family="'Helvetica'" font-size="10">a</tspan><tspan x="31.133" y="0" display="inline" fill="#333333" font-family="'Helvetica'" font-size="10">i</tspan></text>
<text transform="matrix(1 0 0 1 415.5107 -77.9683)" display="none" fill="#FFFFFF" font-family="'Helvetica'" font-size="10">F</text>
<text transform="matrix(1 0 0 1 421.3701 -77.9683)" display="none"><tspan x="0" y="0" display="inline" fill="#FFFFFF" font-family="'Helvetica'" font-size="10">a</tspan><tspan x="5.571" y="0" display="inline" fill="#FFFFFF" font-family="'Helvetica'" font-size="10">c</tspan><tspan x="10.701" y="0" display="inline" fill="#FFFFFF" font-family="'Helvetica'" font-size="10">e</tspan><tspan x="16.313" y="0" display="inline" fill="#FFFFFF" font-family="'Helvetica'" font-size="10">b</tspan><tspan x="21.984" y="0" display="inline" fill="#FFFFFF" font-family="'Helvetica'" font-size="10">o</tspan><tspan x="27.626" y="0" display="inline" fill="#FFFFFF" font-family="'Helvetica'" font-size="10">o</tspan><tspan x="33.228" y="0" display="inline" fill="#FFFFFF" font-family="'Helvetica'" font-size="10">k </tspan></text>
<text transform="matrix(1 0 0 1 462.3975 -77.9683)" display="none" fill="#FFFFFF" font-family="'Helvetica'" font-size="10">“</text>
<text transform="matrix(1 0 0 1 466.5508 -77.9683)" display="none" fill="#FFFFFF" font-family="'Helvetica'" font-size="10">f</text>
<text transform="matrix(1 0 0 1 470.3408 -77.9683)" display="none"><tspan x="0" y="0" display="inline" fill="#FFFFFF" font-family="'Helvetica'" font-size="10">” </tspan><tspan x="6.108" y="0" display="inline" fill="#FFFFFF" font-family="'Helvetica'" font-size="10">L</tspan><tspan x="11.71" y="0" display="inline" fill="#FFFFFF" font-family="'Helvetica'" font-size="10">og</tspan><tspan x="22.973" y="0" display="inline" fill="#FFFFFF" font-family="'Helvetica'" font-size="10">o</tspan></text>
<text transform="matrix(1 0 0 1 831.6807 -77.9683)" display="none" fill="#FFFFFF" font-family="'Helvetica'" font-size="10">R</text>
<text transform="matrix(1 0 0 1 838.8203 -77.9683)" display="none"><tspan x="0" y="0" display="inline" fill="#FFFFFF" font-family="'Helvetica'" font-size="10">GB / </tspan><tspan x="22.783" y="0" display="inline" fill="#FFFFFF" font-family="'Helvetica'" font-size="10">.</tspan><tspan x="25.531" y="0" display="inline" fill="#FFFFFF" font-family="'Helvetica'" font-size="10">a</tspan><tspan x="31.133" y="0" display="inline" fill="#FFFFFF" font-family="'Helvetica'" font-size="10">i</tspan></text>
<g display="none">
	<defs>
		<rect id="SVGID_1_" x="-124" y="-112" width="1024" height="500"/>
	</defs>
	<clipPath id="SVGID_2_" display="inline">
		<use xlink:href="#SVGID_1_"  overflow="visible"/>
	</clipPath>
	<path display="inline" clip-path="url(#SVGID_2_)" fill="#FFFFFF" d="M763.717,0.553H526.283c-8.137,0-14.73,6.594-14.73,14.73
		v237.434c0,8.135,6.594,14.73,14.73,14.73h127.826V164.092h-34.781v-40.28h34.781V94.106c0-34.472,21.055-53.243,51.807-53.243
		c14.73,0,27.391,1.096,31.08,1.586v36.026l-21.328,0.01c-16.725,0-19.963,7.947-19.963,19.609v25.717h39.887l-5.193,40.28h-34.693
		v103.355h68.012c8.135,0,14.73-6.596,14.73-14.73V15.283C778.447,7.146,771.852,0.553,763.717,0.553"/>
</g>
<g>
	<defs>
		<rect id="SVGID_3_" x="-124" y="-112" width="1024" height="500"/>
	</defs>
	<clipPath id="SVGID_4_">
		<use xlink:href="#SVGID_3_"  overflow="visible"/>
	</clipPath>
	<path clip-path="url(#SVGID_4_)" fill="#3B5998" d="M251.716,267.447c8.134,0,14.73-6.596,14.73-14.729V15.283
		c0-8.137-6.596-14.731-14.73-14.731H14.283c-8.137,0-14.73,6.594-14.73,14.731v237.435c0,8.134,6.593,14.729,14.73,14.729H251.716z
		"/>
	<path clip-path="url(#SVGID_4_)" fill="#FFFFFF" d="M183.705,267.447V164.093h34.693l5.194-40.28h-39.887V98.095
		c0-11.662,3.238-19.609,19.962-19.609l21.33-0.01V42.45c-3.69-0.49-16.351-1.587-31.081-1.587
		c-30.753,0-51.806,18.771-51.806,53.244v29.705h-34.781v40.28h34.781v103.354H183.705z"/>
</g>
</svg>
