<?xml version="1.0" encoding="utf-8"?>
<!-- Generator: Adobe Illustrator 13.0.0, SVG Export Plug-In  -->
<!DOCTYPE svg PUBLIC "-//W3C//DTD SVG 1.1//EN" "http://www.w3.org/Graphics/SVG/1.1/DTD/svg11.dtd" [
	<!ENTITY ns_flows "http://ns.adobe.com/Flows/1.0/">
]>
<svg version="1.1"
	 xmlns="http://www.w3.org/2000/svg" xmlns:xlink="http://www.w3.org/1999/xlink" xmlns:a="http://ns.adobe.com/AdobeSVGViewerExtensions/3.0/"
	 x="0px" y="0px" width="121px" height="118px" viewBox="0 0 121 118" enable-background="new 0 0 121 118" xml:space="preserve">
<defs>
</defs>
<path fill-rule="evenodd" clip-rule="evenodd" fill="#181617" d="M60.389,0C27.041,0,0,27.035,0,60.389
	c0,26.68,17.303,49.315,41.297,57.301c3.019,0.559,4.126-1.311,4.126-2.905c0-1.439-0.056-6.197-0.082-11.243
	c-16.8,3.653-20.345-7.125-20.345-7.125c-2.747-6.979-6.705-8.836-6.705-8.836c-5.479-3.748,0.413-3.671,0.413-3.671
	c6.064,0.426,9.257,6.224,9.257,6.224c5.387,9.231,14.127,6.562,17.573,5.02c0.542-3.902,2.107-6.567,3.834-8.075
	c-13.413-1.526-27.513-6.705-27.513-29.844c0-6.592,2.358-11.98,6.222-16.209c-0.627-1.521-2.694-7.663,0.585-15.981
	c0,0,5.072-1.622,16.611,6.191c4.816-1.338,9.982-2.009,15.115-2.033c5.132,0.024,10.302,0.695,15.128,2.033
	c11.525-7.813,16.59-6.191,16.59-6.191c3.287,8.318,1.22,14.46,0.593,15.981c3.872,4.229,6.214,9.617,6.214,16.209
	c0,23.195-14.127,28.301-27.574,29.796c2.166,1.874,4.097,5.549,4.097,11.183c0,8.08-0.069,14.583-0.069,16.572
	c0,1.607,1.086,3.49,4.147,2.897c23.98-7.994,41.263-30.622,41.263-57.293C120.776,27.035,93.739,0,60.389,0"/>
<path fill="#181617" d="M22.873,86.703c-0.134,0.301-0.605,0.391-1.035,0.185c-0.439-0.197-0.685-0.606-0.542-0.907
	c0.13-0.309,0.602-0.395,1.04-0.188C22.773,85.989,23.023,86.402,22.873,86.703"/>
<path fill="#181617" d="M25.319,89.432c-0.288,0.267-0.853,0.143-1.233-0.279c-0.396-0.421-0.469-0.984-0.177-1.255
	c0.297-0.267,0.843-0.142,1.237,0.279C25.543,88.603,25.62,89.161,25.319,89.432"/>
<path fill="#181617" d="M27.699,92.909c-0.369,0.258-0.976,0.017-1.35-0.521c-0.37-0.537-0.37-1.182,0.009-1.439
	c0.374-0.258,0.972-0.025,1.351,0.507C28.078,92.002,28.078,92.646,27.699,92.909"/>
<path fill="#181617" d="M30.961,96.27c-0.33,0.365-1.035,0.267-1.552-0.231c-0.527-0.486-0.675-1.178-0.344-1.543
	c0.336-0.365,1.045-0.263,1.565,0.231C31.154,95.213,31.314,95.908,30.961,96.27"/>
<path fill="#181617" d="M35.461,98.221c-0.146,0.473-0.824,0.687-1.509,0.486c-0.683-0.207-1.13-0.761-0.992-1.238
	c0.143-0.478,0.824-0.7,1.514-0.485C35.155,97.189,35.604,97.739,35.461,98.221"/>
<path fill="#181617" d="M40.404,98.582c0.017,0.498-0.563,0.911-1.281,0.92c-0.723,0.017-1.308-0.387-1.315-0.877
	c0-0.503,0.568-0.911,1.289-0.924C39.814,97.687,40.404,98.088,40.404,98.582"/>
<path fill="#181617" d="M45.002,97.8c0.087,0.485-0.412,0.984-1.126,1.117c-0.7,0.129-1.35-0.172-1.438-0.653
	c-0.087-0.498,0.42-0.997,1.121-1.126C44.272,97.014,44.911,97.306,45.002,97.8"/>
</svg>
