<?xml version="1.0" encoding="utf-8"?>
<!-- Generator: Adobe Illustrator 15.0.2, SVG Export Plug-In  -->
<!DOCTYPE svg PUBLIC "-//W3C//DTD SVG 1.1//EN" "http://www.w3.org/Graphics/SVG/1.1/DTD/svg11.dtd" [
	<!ENTITY ns_flows "http://ns.adobe.com/Flows/1.0/">
]>
<svg version="1.1"
	 xmlns="http://www.w3.org/2000/svg" xmlns:xlink="http://www.w3.org/1999/xlink" xmlns:a="http://ns.adobe.com/AdobeSVGViewerExtensions/3.0/"
	 x="0px" y="0px" width="127px" height="125px" viewBox="-0.375 -0.786 127 125"
	 overflow="visible" enable-background="new -0.375 -0.786 127 125" xml:space="preserve">
<defs>
</defs>
<path fill="#DC4A38" d="M122.311,0H3.94C1.763,0,0,1.763,0,3.938v115.546c0,2.18,1.763,3.942,3.94,3.942h118.371
	c2.178,0,3.94-1.764,3.94-3.942V3.938C126.251,1.763,124.486,0,122.311,0z"/>
<path fill="#FFFFFF" d="M66.275,67.735l-3.983-3.093c-1.213-1.006-2.872-2.334-2.872-4.765c0-2.441,1.659-3.993,3.099-5.43
	c4.639-3.652,9.276-7.539,9.276-15.73c0-8.423-5.3-12.854-7.84-14.956h6.849l7.188-4.517H56.214c-5.976,0-14.588,1.414-20.893,6.619
	c-4.752,4.1-7.07,9.753-7.07,14.842c0,8.639,6.633,17.396,18.346,17.396c1.106,0,2.316-0.108,3.534-0.222
	c-0.547,1.331-1.1,2.438-1.1,4.32c0,3.431,1.763,5.534,3.317,7.527c-4.977,0.343-14.268,0.894-21.117,5.104
	c-6.523,3.879-8.508,9.524-8.508,13.51c0,8.202,7.731,15.842,23.762,15.842c19.01,0,29.074-10.519,29.074-20.932
	C75.561,75.6,71.141,71.834,66.275,67.735z M51.796,54.998c-9.51,0-13.818-12.294-13.818-19.712c0-2.889,0.547-5.87,2.428-8.199
	c1.773-2.218,4.861-3.657,7.744-3.657c9.168,0,13.923,12.404,13.923,20.382c0,1.996-0.22,5.533-2.762,8.09
	C57.533,53.676,54.558,54.998,51.796,54.998z M51.905,99.541c-11.826,0-19.452-5.657-19.452-13.523
	c0-7.863,7.071-10.523,9.504-11.404c4.64-1.562,10.611-1.779,11.607-1.779c1.105,0,1.658,0,2.538,0.111
	c8.407,5.982,12.056,8.965,12.056,14.629C68.158,94.433,62.519,99.541,51.905,99.541z"/>
<polygon fill="#FFFFFF" points="94.189,54.829 94.189,43.754 88.719,43.754 88.719,54.829 77.662,54.829 77.662,60.359 
	88.719,60.359 88.719,71.503 94.189,71.503 94.189,60.359 105.302,60.359 105.302,54.829 "/>
</svg>
