<?xml version="1.0" encoding="utf-8"?>
<!-- Generator: Adobe Illustrator 13.0.0, SVG Export Plug-In . SVG Version: 6.00 Build 14948)  -->
<!DOCTYPE svg PUBLIC "-//W3C//DTD SVG 1.1//EN" "http://www.w3.org/Graphics/SVG/1.1/DTD/svg11.dtd">
<svg version="1.1" id="Layer_1" xmlns="http://www.w3.org/2000/svg" xmlns:xlink="http://www.w3.org/1999/xlink" x="0px" y="0px"
	 width="173.164px" height="110.772px" viewBox="0 0 173.164 110.772" enable-background="new 0 0 173.164 110.772"
	 xml:space="preserve">
<path fill-rule="evenodd" clip-rule="evenodd" fill="#E94129" d="M166.684,103.284c-8.641,10.08-151.201,9.791-159.842,0.289
	C-2.086,93.206-2.374,13.141,6.554,5.366c8.065-7.201,150.913-7.201,159.264,0.287C175.611,14.004,175.322,93.493,166.684,103.284
	L166.684,103.284z"/>
<g>
	<path fill-rule="evenodd" clip-rule="evenodd" fill="#FADBCD" d="M114.508-0.597c0-0.106,0-0.212,0-0.318"/>
	<path fill-rule="evenodd" clip-rule="evenodd" fill="#FFFFFF" d="M80.155,96.099c-0.276-1.23,0.777-1.133,0.954-1.908
		c-4.448-4.988-8.204-10.669-12.405-15.904c-1.202-0.461-0.611,0.875-1.589,0.637c-2.73-3.527-6.492-6.02-8.589-10.18
		c-0.979-0.236-0.611,0.874-1.591,0.637c-0.987-1.263-0.544-3.195-0.954-5.726c-0.378-2.328-2.048-3.798-2.863-6.68
		c-2.29-8.096-3.359-19.4-0.318-28.945c2.932-0.886,3.27-4.364,6.045-5.407c0.267-0.369,0.419-0.853,0.318-1.59
		c3.971-0.936,8.634-6.058,13.359-2.227c3.348-1.365,5.476,1.15,8.904,0.318c2.268,1.973,3.701,4.782,5.726,6.998
		c0.497-1.094,1.504-1.677,1.272-3.499c2.575-1.771,5.46-3.234,7.635-5.407c4.958-1.958,9.901-0.992,15.586,0
		c2.691,3.521,7.667,9.523,8.587,14.631c0.874,4.844-0.037,10.225-0.317,16.54c-0.063,1.408,0.515,2.715,0.317,4.134
		c-0.199,1.439-1.3,4.426-1.907,6.681c-1.327,4.914-4.555,9.195-5.727,13.041c-3.152,1.405-4.683,4.434-6.68,6.998
		c-2.679,1.667-4.768,3.926-6.68,6.361C91.666,87.888,86.779,92.862,80.155,96.099z M104.012,77.014
		c2.598-4.081,5.339-8.019,8.587-11.45c4.354-10.181,5.939-23.402,3.499-36.261c-0.251-0.702-1.495-0.413-1.59-1.272
		c-0.299-8.742-9.516-9.598-17.494-7.316c-1.862,2.061-4.085,3.762-6.68,5.09c-0.703,2.16-1.687,4.039-3.182,5.407
		c-2.544-1.485-4.416-3.643-5.407-6.68c-3.464-0.58-4.269-3.422-8.271-2.863c-1.473,0.207-2.924,1.748-4.134,2.227
		c-0.47,0.186-1.369-0.138-1.909,0c-0.713,0.181-1.384,1.11-1.909,1.272c-1.597,0.493-3.105,0.217-4.452,0.954
		c-3.106,1.699-5.402,5.684-6.044,10.179c-0.347,2.439,0.101,5.435-0.317,8.27c-1.249,8.484,3.517,14.082,4.771,22.265
		c0.849,0,1.697,0,2.546,0c2.438,5.848,8.275,9.101,11.768,13.359c1.069,1.304,1.427,3.049,2.545,4.453
		c2.026,2.543,5.57,3.873,7.952,6.044C90.006,85.274,97.854,81.989,104.012,77.014z"/>
	<path fill-rule="evenodd" clip-rule="evenodd" fill="#FFFFFF" d="M84.29,88.147c-3.818-2.885-7.083-4.725-8.906-9.861
		c-4.689-3.051-8.803-6.678-11.132-12.088c-0.669-0.603-1.631-0.914-2.545-1.271c-1.579-3.723-2.233-8.369-5.089-10.814
		c-0.96-4.958-0.016-10.486,0.953-14.949c0.403-1.854-0.052-3.776,0.318-5.09c1.253-4.43,4.558-5.407,9.542-6.997
		c2.82-0.9,7.279-4.191,11.134-1.591c0.217,0.147,0.141,0.845,0.316,0.955c0.28,0.173,1.029-0.213,1.273,0
		c2.242,1.95,3.973,5.445,6.997,6.998c2.006-0.539,2.84-2.25,4.454-3.181c-0.548-4.895,4.523-4.17,5.726-7.316
		c4.755-2.932,11.55-1.714,14.632,1.908c0.398,2.676,1.079,5.07,2.861,6.362c0.081,5.932-0.281,10.134,0.637,14.631
		c-1.505,6.447-2.569,13.334-5.089,18.767c-3.878,4.974-6.232,10.26-11.452,13.995c-1.679,1.201-3.92,1.863-5.725,2.863
		C89.729,83.386,87.362,85.877,84.29,88.147z"/>
	<path display="none" fill-rule="evenodd" clip-rule="evenodd" fill="#F59477" d="M-2.545,47.115c0-2.015,0-4.029,0-6.044
		c0.106,0,0.212,0,0.318,0C-2.435,42.984-1.807,45.731-2.545,47.115z"/>
	<path display="none" fill-rule="evenodd" clip-rule="evenodd" fill="#F59477" d="M173.67,41.071c0.106,0,0.212,0,0.318,0"/>
	<path display="none" fill-rule="evenodd" clip-rule="evenodd" fill="#F59477" d="M-2.545,64.609c0.738,1.384,0.11,4.13,0.318,6.043
		c-0.106,0-0.212,0-0.318,0C-2.545,68.639-2.545,66.624-2.545,64.609z"/>
	<path fill-rule="evenodd" clip-rule="evenodd" fill="#F59477" d="M173.988,70.652c-0.106,0-0.212,0-0.318,0"/>
	<path display="none" fill-rule="evenodd" clip-rule="evenodd" fill="#F59477" d="M38.17,112.003
		c1.175,0.203,3.168-0.412,3.815,0.318C40.811,112.118,38.817,112.732,38.17,112.003z"/>
	<path fill-rule="evenodd" clip-rule="evenodd" fill="#F59477" d="M129.775,112.321"/>
	<path display="none" fill-rule="evenodd" clip-rule="evenodd" fill="#F59477" d="M45.804,112.321
		c1.595,0.205,4.021-0.418,5.089,0.316C49.295,112.433,46.87,113.055,45.804,112.321z"/>
	<path display="none" fill-rule="evenodd" clip-rule="evenodd" fill="#F59477" d="M120.869,112.638
		c0.962-0.733,3.281-0.111,4.771-0.316C124.679,113.055,122.359,112.433,120.869,112.638z"/>
	<path fill-rule="evenodd" clip-rule="evenodd" fill="#FFFFFF" d="M120.869,112.638"/>
	<path display="none" fill-rule="evenodd" clip-rule="evenodd" fill="#F7B29B" d="M110.373-0.915c1.378,0,2.757,0,4.135,0
		c0,0.106,0,0.212,0,0.318"/>
	<path fill-rule="evenodd" clip-rule="evenodd" fill="#F7B29B" d="M114.508,112.638c0,0.106,0,0.213,0,0.318"/>
	<path fill-rule="evenodd" clip-rule="evenodd" fill="#F0592B" d="M84.29,90.691c-2.382-2.171-5.926-3.501-7.952-6.044
		c-1.118-1.404-1.476-3.149-2.545-4.453c-3.492-4.259-9.329-7.512-11.768-13.359c-0.849,0-1.697,0-2.546,0
		c-1.254-8.184-6.02-13.781-4.771-22.265c0.418-2.834-0.029-5.83,0.317-8.27c0.642-4.495,2.938-8.48,6.044-10.179
		c1.347-0.737,2.855-0.461,4.452-0.954c0.525-0.162,1.196-1.091,1.909-1.272c0.54-0.138,1.439,0.186,1.909,0
		c1.21-0.479,2.661-2.021,4.134-2.227c4.002-0.56,4.807,2.283,8.271,2.863c0.991,3.037,2.863,5.195,5.407,6.68
		c1.495-1.369,2.479-3.247,3.182-5.407c2.595-1.328,4.817-3.029,6.68-5.09c7.979-2.282,17.195-1.426,17.494,7.316
		c0.095,0.859,1.339,0.571,1.59,1.272c2.44,12.859,0.855,26.081-3.499,36.261c-3.248,3.432-5.989,7.369-8.587,11.45
		C97.854,81.989,90.006,85.274,84.29,90.691z M93.196,81.468c1.805-1,4.046-1.662,5.725-2.863c5.22-3.735,7.574-9.021,11.452-13.995
		c2.52-5.433,3.584-12.32,5.089-18.767c-0.918-4.497-0.556-8.7-0.637-14.631c-1.782-1.292-2.463-3.686-2.861-6.362
		c-3.082-3.623-9.877-4.84-14.632-1.908c-1.202,3.146-6.273,2.421-5.726,7.316c-1.614,0.931-2.448,2.642-4.454,3.181
		c-3.024-1.553-4.755-5.048-6.997-6.998c-0.244-0.213-0.993,0.173-1.273,0c-0.176-0.11-0.1-0.808-0.316-0.955
		c-3.854-2.6-8.313,0.69-11.134,1.591c-4.984,1.59-8.289,2.567-9.542,6.997c-0.37,1.314,0.085,3.236-0.318,5.09
		c-0.969,4.463-1.913,9.992-0.953,14.949c2.855,2.445,3.51,7.092,5.089,10.814c0.914,0.357,1.876,0.669,2.545,1.271
		c2.329,5.41,6.442,9.037,11.132,12.088c1.823,5.137,5.088,6.977,8.906,9.861C87.362,85.877,89.729,83.386,93.196,81.468z"/>
</g>
</svg>
