<?xml version="1.0" standalone="no"?> <!DOCTYPE svg PUBLIC "-//W3C//DTD SVG 1.0//EN" "http://www.w3.org/TR/2001/REC-SVG-20010904/DTD/svg10.dtd" > <svg xmlns="http://www.w3.org/2000/svg" width="100%" height="100%">
<defs >
<font horiz-adv-x="377" ><font-face
    font-family="Anna"
    units-per-em="1000"
    panose-1="2 0 4 0 0 0 0 0 0 0"
    ascent="963"
    descent="-237"
    alphabetic="0" />
<missing-glyph horiz-adv-x="500" d="M63 0V963H438V0H63ZM125 63H375V900H125V63Z" />
<glyph unicode=" " glyph-name="space" horiz-adv-x="278" />
<glyph unicode="!" glyph-name="exclam" horiz-adv-x="312" d="M220 602Q220 597 220 592T219 583L188 189H128L97 583Q96 587 96 591Q96 596 96 601Q96 683 157 683Q220 683 220 602ZM223 56Q223 30 204 10Q186 -10 158 -10Q132 -10 112 9Q93 29 93 56Q93 83
112 102Q131 120 158 120Q185 120 204 101Q223 83 223 56Z" />
<glyph unicode="&quot;" glyph-name="quotedbl" d="M332 583Q332 578 329 532T319 399H237L218 667Q283 667 301 657Q332 642 332 583ZM162 667L142 399H60Q53 487 50 533T46 586Q46 641 79 656Q97 665 162 667Z" />
<glyph unicode="#" glyph-name="numbersign" horiz-adv-x="542" d="M474 371H367L354 280H456V227H347L318 30H261L289 227H207L179 30H121L148 227H45V280H156L169 371H69V425H176L203 610H261L235 425H316L343 610H400L375 425H474V371ZM311 373H226L212 278H297L311
373Z" />
<glyph unicode="$" glyph-name="dollar" horiz-adv-x="542" d="M458 200Q458 146 444 116Q429 83 390 50Q335 4 261 0V-82H208V0Q182 2 155 9T102 27Q29 56 29 95Q29 131 63 131Q70 131 122 104Q172 79 208 76V291Q28 361 28 478Q28 552 81 608Q135 665 208 665V732H261V668Q285
667 305 663T342 653Q354 648 371 639T412 615L379 552Q325 586 264 593L265 396Q458 338 458 200ZM208 419V590Q172 586 147 563Q122 539 122 502Q122 445 208 419ZM352 178Q352 245 261 272V78Q352 89 352 178Z" />
<glyph unicode="%" glyph-name="percent" horiz-adv-x="689" d="M654 175Q654 110 624 60Q588 0 528 0Q468 0 433 61Q403 111 403 177Q403 241 434 292Q470 350 531 350Q589 350 625 290Q654 238 654 175ZM507 666L256 0H201L454 667L507 666ZM299 492Q299 427
269 376Q233 316 173 316Q113 316 78 377Q48 427 48 494Q48 558 79 608Q115 667 176 667Q234 667 270 606Q299 555 299 492ZM589 178Q589 226 579 260Q563 312 527 312Q493 312 478 258Q467 223 467 175Q467 39 528 39Q589 39 589 178ZM234 494Q234 542 224 577Q208
628 172 628Q138 628 123 575Q112 540 112 492Q112 355 173 355Q234 355 234 494Z" />
<glyph unicode="&amp;" glyph-name="ampersand" horiz-adv-x="618" d="M563 150L502 111Q543 52 543 29Q543 7 529 -8T492 -23Q460 -23 438 11V9Q438 9 437 13L432 20L410 53Q379 32 357 19T318 -2Q272 -23 213 -23Q131 -23 85 28Q41 77 41 159Q41 234 84 286Q116
323 193 370Q182 387 170 403T146 437Q126 470 126 516Q126 587 167 631Q209 676 280 676Q465 676 465 517Q465 438 335 357L450 190L509 229L563 150ZM358 515Q358 540 342 560Q326 580 300 580Q275 580 258 567Q239 553 239 529Q239 502 253 475Q256 470 264
459T285 429Q296 435 307 444T331 465Q358 494 358 515ZM356 131Q337 159 309 201T242 299Q149 240 149 165Q149 127 166 103Q185 73 221 73Q262 73 294 90Q310 101 325 111T356 131Z" />
<glyph unicode="&apos;" glyph-name="quotesingle" horiz-adv-x="179" d="M151 667L135 460Q132 413 88 413Q43 413 41 460L27 667H151Z" />
<glyph unicode="(" glyph-name="parenleft" horiz-adv-x="247" d="M244 679Q244 670 210 617Q170 555 167 546Q117 440 117 273Q117 155 141 73Q168 -20 233 -106L193 -146Q3 16 3 273Q3 394 51 505Q101 622 193 693Q208 705 219 705Q244 705 244 679Z" />
<glyph unicode=")" glyph-name="parenright" horiz-adv-x="300" d="M271 273Q271 16 81 -146L40 -106Q105 -20 133 73Q157 155 157 273Q157 440 107 546Q103 555 63 617Q29 670 29 679Q29 705 55 705Q66 705 81 693Q172 622 223 505Q271 394 271 273Z" />
<glyph unicode="*" glyph-name="asterisk" horiz-adv-x="413" d="M373 459L254 413L346 327L301 283L207 380L112 283L67 327L159 413L41 459L67 521L175 467V579Q175 612 207 612Q238 612 238 579V467L346 521L373 459Z" />
<glyph unicode="+" glyph-name="plus" horiz-adv-x="642" d="M350 313V115H276V313H81V385H276V551Q276 587 313 587Q350 587 350 551V385H546V313H350Z" />
<glyph unicode="," glyph-name="comma" horiz-adv-x="238" d="M185 27Q185 -25 148 -78Q113 -128 64 -154L36 -122Q104 -67 111 -14Q53 -3 53 47Q53 73 71 91Q89 110 115 110Q146 110 167 84Q185 60 185 27Z" />
<glyph unicode="-" glyph-name="hyphen" horiz-adv-x="317" d="M267 239Q267 219 253 206T218 193H47V286H218Q239 286 253 273T267 239Z" />
<glyph unicode="." glyph-name="period" horiz-adv-x="232" d="M185 56Q185 30 166 10Q147 -10 120 -10Q94 -10 74 9Q55 29 55 56Q55 83 74 102Q93 120 120 120Q146 120 166 101Q185 83 185 56Z" />
<glyph unicode="/" glyph-name="slash" horiz-adv-x="431" d="M430 655Q430 645 425 634L88 -120H-4L349 667Q362 694 389 694Q406 694 418 683T430 655Z" />
<glyph unicode="0" glyph-name="zero" horiz-adv-x="528" d="M478 334Q478 207 434 111Q376 -13 264 -13Q152 -13 94 111Q50 206 50 333Q50 461 96 556Q153 678 268 678Q376 678 434 554Q478 458 478 334ZM355 332Q355 597 263 597Q173 597 173 334Q173 67 264
67Q355 67 355 332Z" />
<glyph unicode="1" glyph-name="one" horiz-adv-x="339" d="M251 0H144V583Q142 583 138 583T127 582Q123 582 118 582T110 582Q49 582 49 624Q49 667 100 667H251V0Z" />
<glyph unicode="2" glyph-name="two" horiz-adv-x="481" d="M445 0H37L303 434Q332 480 332 514Q332 551 306 575Q282 599 244 599Q201 599 160 568Q120 538 107 538Q100 538 93 541T81 549T72 562T68 576Q68 623 139 654Q196 678 250 678Q331 678 387 623Q443
567 443 487Q443 434 408 376L238 97H445V0Z" />
<glyph unicode="3" glyph-name="three" horiz-adv-x="485" d="M443 219Q443 107 381 48Q320 -11 208 -11Q115 -11 42 44V152Q121 76 201 76Q254 76 288 115Q321 152 321 206Q321 277 266 304Q228 323 148 323Q143 323 134 323Q125 323 114 323Q103 322 95 322Q87
322 82 322L262 580H91Q72 580 59 592T45 624Q45 670 92 670H423L232 407L298 403Q311 402 336 389Q443 333 443 219Z" />
<glyph unicode="4" glyph-name="four" horiz-adv-x="540" d="M507 195Q507 146 438 146Q434 146 428 146Q421 146 413 146Q405 147 400 147T390 147V44Q390 20 377 2Q363 -16 339 -16Q327 -16 317 -11T299 2T287 21T283 44V148H33V245L269 667H390V240Q393 240
398 240T413 241Q421 242 427 242T439 242Q507 242 507 195ZM284 533L120 241L283 240L284 533Z" />
<glyph unicode="5" glyph-name="five" horiz-adv-x="501" d="M451 219Q451 108 389 46Q327 -16 215 -16Q123 -16 50 40V147Q129 71 208 71Q262 71 296 112Q329 151 329 206Q329 323 203 323Q136 323 63 305L80 666L353 667Q407 667 407 625Q407 597 393 588Q382
580 354 580H157L146 395Q187 403 210 406T241 410Q327 410 388 359Q451 306 451 219Z" />
<glyph unicode="6" glyph-name="six" horiz-adv-x="519" d="M482 210Q482 113 426 51Q367 -15 271 -15Q36 -15 36 300Q36 446 99 551Q174 678 310 678Q354 678 400 663Q461 643 461 609Q461 592 448 575Q435 559 418 559Q417 559 384 572Q352 586 323 586Q251
586 208 513Q171 450 170 374Q214 417 307 417Q392 417 439 354Q482 297 482 210ZM371 208Q371 327 262 327Q235 327 203 301Q171 273 171 246V181Q171 138 196 107Q222 76 265 76Q318 76 346 117Q371 153 371 208Z" />
<glyph unicode="7" glyph-name="seven" horiz-adv-x="484" d="M439 612L255 61Q230 -13 182 -13Q129 -13 129 32Q129 50 143 92L308 581H44V667H439V612Z" />
<glyph unicode="8" glyph-name="eight" horiz-adv-x="530" d="M493 160Q493 75 417 26Q352 -16 262 -16Q172 -16 110 22Q37 66 37 151Q37 210 88 263Q99 274 123 294T186 343L108 411Q73 442 73 514Q73 596 132 639Q184 677 270 677Q352 677 405 641Q465 599 465
520Q465 464 431 422Q416 405 351 351Q395 313 418 293T445 270Q493 218 493 160ZM362 524Q362 586 270 586Q233 586 209 573Q178 556 178 523Q178 484 204 462L265 412L341 475Q362 493 362 524ZM371 156Q371 190 342 214L263 280L189 217Q159 192 159 148Q159
78 266 78Q309 78 337 95Q371 116 371 156Z" />
<glyph unicode="9" glyph-name="nine" horiz-adv-x="523" d="M484 364Q484 219 422 113Q347 -13 211 -13Q167 -13 121 2Q60 22 60 56Q60 78 73 92T107 106Q110 106 144 92Q176 79 203 79Q273 79 315 152Q349 213 350 291Q307 249 213 249Q130 249 82 310Q39 367
39 453Q39 550 95 612Q153 678 249 678Q484 678 484 364ZM350 414Q350 498 342 526Q324 589 262 589Q151 589 151 461Q151 406 177 372Q206 333 259 333Q287 333 318 360Q350 387 350 414Z" />
<glyph unicode=":" glyph-name="colon" horiz-adv-x="259" d="M196 413Q196 387 177 367Q159 347 131 347Q105 347 85 366Q66 386 66 413Q66 440 85 458Q104 477 131 477Q158 477 177 458Q196 440 196 413ZM196 56Q196 30 177 10Q159 -10 131 -10Q105 -10 85 9Q66
29 66 56Q66 83 85 102Q104 120 131 120Q158 120 177 101Q196 83 196 56Z" />
<glyph unicode=";" glyph-name="semicolon" horiz-adv-x="287" d="M209 413Q209 387 190 367Q172 347 145 347Q119 347 99 366Q80 386 80 413Q80 427 85 438T98 458T119 472T146 477Q171 477 190 458Q209 439 209 413ZM210 27Q210 -25 173 -78Q139 -128 90 -154L61
-122Q130 -67 136 -14Q78 -3 78 47Q78 73 96 91Q115 110 140 110Q172 110 192 84Q210 60 210 27Z" />
<glyph unicode="&lt;" glyph-name="less" horiz-adv-x="559" d="M497 531Q497 495 451 473L166 336L479 184V73L46 289V384L403 563Q426 574 447 574Q468 574 482 563T497 531Z" />
<glyph unicode="=" glyph-name="equal" horiz-adv-x="583" d="M498 395H109Q68 395 68 429Q68 463 109 463H498V395ZM499 227H110Q69 227 69 261Q69 296 110 296H499V227Z" />
<glyph unicode="&gt;" glyph-name="greater" horiz-adv-x="523" d="M483 289L50 73V184L364 336L79 473Q33 495 33 531Q33 550 49 563Q63 574 83 574Q104 574 126 563L483 384V289Z" />
<glyph unicode="?" glyph-name="question" horiz-adv-x="518" d="M456 509Q456 454 417 396L345 303Q306 251 306 214V167H194L195 247Q196 293 232 343Q249 364 266 384T300 424Q336 471 336 503Q336 541 312 563Q288 584 250 584Q207 584 170 556Q133 528 113
528Q106 528 99 531T87 539T78 552T75 566Q75 611 145 647Q205 678 256 678Q335 678 393 634Q456 585 456 509ZM312 55Q312 28 292 8Q274 -11 247 -11Q221 -11 201 8Q182 28 182 54Q182 82 201 100Q220 119 247 119Q273 119 292 100Q312 82 312 55Z" />
<glyph unicode="@" glyph-name="at" horiz-adv-x="701" d="M665 390Q665 277 637 223Q599 150 500 150Q405 150 396 205Q351 152 292 152Q241 152 209 206Q184 250 184 306Q184 394 229 459Q279 533 363 533L482 534V260Q482 252 486 245T496 233T510 226T525
223Q609 223 609 390Q609 480 537 548Q466 614 374 614Q261 614 180 535Q100 456 100 343Q100 226 178 142Q258 56 374 56Q483 56 548 118L630 117Q590 62 516 29Q445 -1 373 -1Q233 -1 135 98Q37 197 37 337Q37 476 139 573Q239 669 378 669Q492 669 578 586Q665
503 665 390ZM390 280V470H365Q322 469 295 424Q271 385 271 339Q271 227 325 227Q352 227 390 280Z" />
<glyph unicode="A" glyph-name="A" horiz-adv-x="540" d="M511 0H385L343 156H153L118 42Q103 -7 61 -7Q15 -7 15 39Q15 48 22 71L198 621Q204 643 222 659Q241 676 262 676Q309 676 325 623L511 0ZM318 244L255 469Q254 471 251 474Q248 474 247 468L180 244H318Z" />
<glyph unicode="B" glyph-name="B" horiz-adv-x="506" d="M473 189Q473 95 407 45Q348 0 251 0H125Q89 0 63 27Q39 54 39 89V667H263Q342 667 391 632Q446 592 446 516Q446 414 339 365Q473 318 473 189ZM335 501Q335 556 293 577Q264 592 204 592H155V400H195Q335
400 335 501ZM347 197Q347 273 283 298Q249 311 155 313V139Q155 108 160 99Q167 83 195 83Q267 83 302 104Q347 131 347 197Z" />
<glyph unicode="C" glyph-name="C" horiz-adv-x="514" d="M489 75Q445 26 401 7Q356 -12 290 -12Q165 -12 89 87Q21 178 21 307Q21 454 86 557Q163 679 300 679Q341 679 388 662Q447 641 447 605Q447 555 404 555Q392 555 358 566Q325 578 304 578Q224 578 181
495Q146 428 146 339Q146 236 181 170Q226 86 319 86Q382 86 433 136L489 75Z" />
<glyph unicode="D" glyph-name="D" horiz-adv-x="534" d="M491 342Q491 191 429 102Q356 0 211 0H131Q42 0 42 121V667H225Q362 667 431 569Q491 485 491 342ZM365 336Q365 456 341 508Q304 584 197 583H158V125Q158 82 203 82Q291 82 333 170Q365 239 365 336Z" />
<glyph unicode="E" glyph-name="E" horiz-adv-x="463" d="M436 41Q436 -1 395 -1H131Q94 -1 69 23Q44 49 44 87V666H422V579H161V387H337V297H161V140Q161 104 166 96Q173 84 206 84H395Q436 84 436 41Z" />
<glyph unicode="F" glyph-name="F" horiz-adv-x="415" d="M396 580H152V384H323V294H152V48Q152 -14 95 -14Q36 -14 36 49V667H396V580Z" />
<glyph unicode="G" glyph-name="G" horiz-adv-x="527" d="M481 44Q412 -12 293 -12Q169 -12 93 88Q24 179 24 307Q24 453 87 556Q163 679 299 679Q344 679 390 663Q450 642 450 605Q450 586 439 571Q427 555 408 555Q390 555 356 567Q321 580 303 580Q228 580
185 493Q149 423 149 339Q149 236 184 170Q229 86 323 86Q343 86 364 96V327H481V44Z" />
<glyph unicode="H" glyph-name="H" horiz-adv-x="542" d="M485 45Q485 -10 428 -10Q401 -10 385 3Q366 18 366 44V285Q366 300 350 300H173V0H57V666H173V389H349Q364 389 364 404V622Q364 646 383 662Q399 675 425 675Q450 675 467 662Q485 646 485 622V45Z" />
<glyph unicode="I" glyph-name="I" horiz-adv-x="277" d="M201 59Q201 30 186 10Q170 -11 142 -11Q114 -11 98 10Q83 30 83 59V667H201V59Z" />
<glyph unicode="J" glyph-name="J" horiz-adv-x="287" d="M188 0Q188 -128 72 -203Q47 -218 28 -218Q9 -218 -4 -205T-18 -172Q-18 -151 5 -129Q38 -98 48 -82Q71 -44 71 15L70 667H188V0Z" />
<glyph unicode="K" glyph-name="K" horiz-adv-x="458" d="M424 44Q424 21 410 5T374 -11Q327 -11 304 42L205 273L161 198V0H43V667H161V376L315 646Q332 675 361 675Q379 675 393 662Q407 648 407 630Q407 616 397 601L273 389L413 90Q424 65 424 44Z" />
<glyph unicode="L" glyph-name="L" horiz-adv-x="418" d="M404 43Q404 0 364 0H132Q93 0 67 25Q42 51 42 86V667H160V126Q160 96 167 90Q173 84 185 84H364Q404 84 404 43Z" />
<glyph unicode="M" glyph-name="M" horiz-adv-x="686" d="M628 0H518V550L372 35Q360 -8 330 -8Q298 -8 286 36L149 519V59Q149 32 136 13Q120 -8 95 -8Q69 -8 55 13Q42 32 42 59V583Q42 622 70 646Q99 670 137 670Q168 670 196 649Q224 630 233 599L342 221L468
667H628V0Z" />
<glyph unicode="N" glyph-name="N" horiz-adv-x="533" d="M469 0H377L147 478L148 52Q148 29 135 12Q122 -6 98 -6Q75 -6 61 12Q48 29 48 52V593Q48 670 134 670Q184 670 208 620L370 278V667H469V0Z" />
<glyph unicode="O" glyph-name="O" horiz-adv-x="566" d="M536 333Q536 205 476 104Q405 -17 285 -17Q164 -17 93 105Q34 207 34 337Q34 466 96 566Q169 683 290 683Q407 683 477 562Q536 460 536 333ZM407 338Q407 429 386 495Q354 592 283 592Q215 592 184 491Q163
424 163 334Q163 242 184 175Q214 75 285 75Q356 75 387 177Q407 245 407 338Z" />
<glyph unicode="P" glyph-name="P" horiz-adv-x="498" d="M464 479Q464 376 396 323Q335 276 227 275Q222 275 215 275Q209 275 201 275H174Q169 275 165 275Q161 275 157 275Q158 272 158 259T158 218Q158 205 158 185Q158 165 158 138Q157 111 157 91Q157 72
157 59Q157 31 143 11Q127 -10 100 -10Q72 -10 57 11Q42 31 42 59V583Q42 620 68 644Q93 667 130 667H223Q330 667 391 627Q464 580 464 479ZM342 474Q342 587 203 587Q157 587 157 535V355H206Q342 355 342 474Z" />
<glyph unicode="Q" glyph-name="Q" horiz-adv-x="569" d="M542 24Q542 16 539 9T530 -5T517 -14T501 -18Q482 -18 419 36Q361 -17 283 -17Q163 -17 91 103Q31 204 31 333Q31 462 91 563Q163 683 282 683Q402 683 473 563Q533 462 533 333Q533 201 472 102Q542
50 542 24ZM404 338Q404 429 383 495Q352 592 280 592Q212 592 181 491Q160 424 160 334Q160 242 181 175Q211 75 282 75Q354 75 384 177Q404 245 404 338Z" />
<glyph unicode="R" glyph-name="R" horiz-adv-x="495" d="M471 0H339L202 298H153V59Q153 31 139 12Q123 -10 96 -10Q69 -10 53 12Q39 31 39 59V583Q39 618 64 643Q91 667 126 667H244Q340 667 395 625Q455 578 455 484Q455 372 325 318L471 0ZM334 484Q334 544
294 568Q263 587 199 587Q170 587 161 573Q153 563 153 535V385H202Q334 385 334 484Z" />
<glyph unicode="S" glyph-name="S" horiz-adv-x="475" d="M438 201Q438 101 370 44Q306 -8 203 -8Q144 -8 93 9Q22 33 22 80Q22 99 38 112Q53 126 71 126Q86 126 127 105Q169 84 202 84Q318 84 318 170Q318 223 246 267Q212 288 179 308T112 349Q40 407 40 495Q40
579 96 629Q149 676 234 676Q324 676 396 626L352 537Q284 579 235 579Q159 579 159 520Q159 472 231 429Q295 391 328 371T366 348Q438 289 438 201Z" />
<glyph unicode="T" glyph-name="T" horiz-adv-x="471" d="M454 583H298V59Q298 29 283 10Q266 -12 238 -12Q211 -12 194 10Q179 30 179 59V583H21V667H454V583Z" />
<glyph unicode="U" glyph-name="U" horiz-adv-x="491" d="M452 181Q452 -10 247 -10Q126 -10 82 36Q39 80 39 202V621Q39 646 55 662T97 678Q122 678 138 662T154 621V178Q154 74 256 74Q316 74 339 114Q356 145 356 210V667H452V181Z" />
<glyph unicode="V" glyph-name="V" horiz-adv-x="496" d="M468 667L285 0H187L18 602Q15 613 15 626Q15 651 30 667T70 683Q114 683 134 629Q134 629 163 527L250 216Q251 210 253 215L260 241L282 320L376 667H468Z" />
<glyph unicode="W" glyph-name="W" horiz-adv-x="687" d="M676 667L541 0H431L341 404L271 57Q257 -12 203 -12Q152 -12 138 52L16 601Q14 613 14 622Q14 647 29 663T70 680Q116 680 134 624Q134 624 156 523L218 234Q218 232 218 232L219 238L223 254L303 667H407L500
238L504 254L583 667H676Z" />
<glyph unicode="X" glyph-name="X" horiz-adv-x="483" d="M460 41Q460 17 443 0Q426 -18 401 -18Q361 -18 341 23L237 233L117 0H8L183 336L20 667H158L253 471L342 644Q357 673 388 673Q407 673 421 660T436 628Q436 615 428 601L307 368L451 78Q460 57 460 41Z" />
<glyph unicode="Y" glyph-name="Y" horiz-adv-x="490" d="M477 667L299 279V63Q299 32 284 12Q268 -11 239 -11Q210 -11 193 12Q178 32 178 63V278L6 665H126L252 386L379 667H477Z" />
<glyph unicode="Z" glyph-name="Z" horiz-adv-x="454" d="M423 44Q423 23 407 11Q393 0 371 0H93Q61 0 39 23Q17 47 17 79Q17 97 26 115L269 581H30V667H415V612L136 88H371Q393 88 408 76T423 44Z" />
<glyph unicode="[" glyph-name="bracketleft" horiz-adv-x="217" d="M194 627Q194 596 159 593Q125 590 125 560V-10Q125 -37 136 -42Q142 -45 172 -45V-120H120Q73 -120 47 -87Q24 -58 24 -10V556Q24 604 47 634Q72 667 120 667H158Q173 667 183 656T194 627Z" />
<glyph unicode="\" glyph-name="backslash" horiz-adv-x="427" d="M438 -120H345L8 634Q3 645 3 655Q3 671 15 682T44 694Q71 694 84 667L438 -120Z" />
<glyph unicode="]" glyph-name="bracketright" horiz-adv-x="248" d="M209 -10Q209 -58 186 -87Q160 -120 113 -120H61V-45H77Q97 -45 104 -37Q108 -30 108 -10V560Q108 590 73 593Q39 596 39 627Q39 644 49 655T75 667H113Q160 667 186 634Q209 604 209 556V-10Z" />
<glyph unicode="^" glyph-name="asciicircum" horiz-adv-x="484" d="M458 363H355L231 593L113 374Q100 350 75 350Q56 350 42 361Q26 374 26 392Q26 402 32 413L168 669H294L458 363Z" />
<glyph unicode="_" glyph-name="underscore" horiz-adv-x="486" d="M489 -134H42Q-3 -134 -3 -100Q-3 -64 42 -64H489V-134Z" />
<glyph unicode="`" glyph-name="grave" horiz-adv-x="267" d="M221 563Q221 539 191 539Q171 539 158 555L46 688H151Q161 673 170 658T190 626Q221 576 221 563Z" />
<glyph unicode="a" glyph-name="a" horiz-adv-x="424" d="M377 49Q377 24 363 7Q347 -10 323 -10Q269 -10 269 52Q220 -9 152 -9Q90 -9 57 56Q30 108 30 177Q30 291 71 372Q123 474 227 474H377V49ZM268 144V390H239Q189 390 159 327Q134 277 134 220Q134 81 191
81Q227 81 268 144Z" />
<glyph unicode="b" glyph-name="b" horiz-adv-x="433" d="M399 177Q399 107 373 56Q339 -9 277 -9Q199 -9 151 52Q152 -10 100 -10Q76 -10 62 8Q49 25 49 49V666H151V473H204Q308 472 359 371Q399 292 399 177ZM295 220Q295 278 271 328Q242 389 191 390H151V144Q158
134 167 124T189 104Q218 81 238 81Q295 81 295 220Z" />
<glyph unicode="c" glyph-name="c" horiz-adv-x="400" d="M382 77Q382 40 322 12Q272 -10 229 -10Q136 -10 79 70Q27 141 27 237Q27 346 83 410Q143 477 249 476H343V392H261Q147 392 147 235Q147 80 251 80Q276 80 303 97Q330 115 343 115Q359 115 370 104T382 77Z" />
<glyph unicode="d" glyph-name="d" horiz-adv-x="437" d="M390 49Q390 24 376 7Q361 -10 336 -10Q284 -10 284 52Q235 -9 158 -9Q96 -9 62 56Q35 107 35 177Q35 291 75 371Q127 472 230 473H284V666H390V49ZM283 144V390H244Q193 389 164 327Q139 276 139 220Q139
81 197 81Q217 81 246 104Q269 122 283 144Z" />
<glyph unicode="e" glyph-name="e" horiz-adv-x="442" d="M408 206H154Q154 156 176 121Q201 79 248 79Q277 79 306 97Q334 115 344 115Q361 115 372 104T384 76Q384 42 327 14Q276 -10 239 -10Q140 -10 82 63Q29 130 29 231Q29 333 76 403Q131 483 228 483Q328
483 374 389Q408 319 408 206ZM296 281Q296 331 284 368Q266 419 225 419Q186 419 167 367Q153 329 153 281H296Z" />
<glyph unicode="f" glyph-name="f" horiz-adv-x="281" d="M271 597Q208 596 193 577Q181 560 180 495V474H266V398H178V39Q178 16 164 1T127 -15Q104 -15 90 0T75 39V398H9V474H75Q75 556 108 607Q147 668 224 668H271V597Z" />
<glyph unicode="g" glyph-name="g" horiz-adv-x="439" d="M389 20Q389 -169 222 -239Q208 -245 195 -245Q186 -245 178 -242T163 -233T154 -219T150 -202Q150 -173 184 -151Q231 -119 247 -95Q281 -45 281 47Q232 -14 155 -14Q93 -14 59 54Q32 107 32 177Q32 292
72 371Q124 472 228 473L389 474V20ZM280 144V390H241Q190 389 161 327Q136 276 136 220Q136 81 194 81Q214 81 243 104Q266 122 280 144Z" />
<glyph unicode="h" glyph-name="h" horiz-adv-x="436" d="M393 54Q393 27 381 7Q367 -17 341 -17Q315 -17 301 7Q289 27 289 55L288 220Q288 310 278 336Q259 389 188 390H156L155 53Q155 26 143 7Q128 -16 102 -16Q76 -16 62 7Q48 27 48 53V667H155V472H199Q317
473 360 397Q393 341 393 210V54Z" />
<glyph unicode="i" glyph-name="i" horiz-adv-x="257" d="M198 602Q198 576 179 557Q160 538 133 538Q107 538 88 556Q70 576 70 602Q70 629 88 647Q107 667 133 667Q160 667 179 647Q198 628 198 602ZM190 53Q190 25 177 4Q162 -20 134 -20Q107 -20 92 4Q80 25
80 54V473H190V53Z" />
<glyph unicode="j" glyph-name="j" horiz-adv-x="260" d="M180 602Q180 576 161 557Q142 538 115 538Q89 538 70 557Q51 576 51 602Q51 628 70 647Q89 667 115 667Q142 667 161 647Q180 628 180 602ZM172 11Q172 -32 163 -66T136 -127T90 -177T22 -216Q3 -225
-15 -225Q-59 -225 -59 -183Q-59 -154 -28 -133Q16 -104 29 -83Q61 -37 61 54V473H172V11Z" />
<glyph unicode="k" glyph-name="k" horiz-adv-x="418" d="M389 36Q389 25 386 16T376 0T362 -11T342 -16Q306 -16 285 28L193 210L146 149V0H43V667H146V283L295 465Q310 483 330 483Q346 483 358 472T370 444Q370 430 360 417L268 302L379 73Q389 52 389 36Z" />
<glyph unicode="l" glyph-name="l" horiz-adv-x="220" d="M163 44Q163 32 160 22T149 4T133 -8T111 -13Q87 -13 73 3T59 44V667H163V44Z" />
<glyph unicode="m" glyph-name="m" horiz-adv-x="657" d="M613 0H508V340Q508 388 458 388Q410 388 386 327V0H282V319Q282 354 274 368Q264 390 234 390Q197 390 158 333V0H49V421Q49 447 63 464T103 481Q157 481 157 418Q207 481 271 481Q337 481 374 410Q401
447 426 462Q455 479 498 479Q613 479 613 332V0Z" />
<glyph unicode="n" glyph-name="n" horiz-adv-x="447" d="M400 0H293L294 265Q294 394 237 394Q189 394 160 331V0H51V425Q51 450 66 467T105 485Q160 485 160 422Q207 482 274 482Q337 482 372 418Q400 366 400 297V0Z" />
<glyph unicode="o" glyph-name="o" horiz-adv-x="453" d="M421 238Q421 144 371 70Q313 -13 224 -13Q135 -13 79 69Q28 144 28 236Q28 331 79 404Q136 486 227 486Q314 486 371 403Q421 330 421 238ZM304 235Q304 416 223 416Q145 416 145 236Q145 58 225 58Q304
58 304 235Z" />
<glyph unicode="p" glyph-name="p" horiz-adv-x="449" d="M417 292Q417 177 371 97Q314 0 208 -1H155V-208H48V423Q48 436 52 446T63 465T79 477T102 482Q156 482 155 419Q203 481 281 481Q345 481 384 416Q417 359 417 292ZM312 250Q312 300 299 338Q281 391
242 391Q222 391 193 371Q168 353 155 333V82H195Q248 83 282 142Q312 194 312 250Z" />
<glyph unicode="q" glyph-name="q" horiz-adv-x="437" d="M392 -208H285V-1H232Q125 0 69 97Q23 177 23 292Q23 359 56 416Q95 481 159 481Q237 481 285 419Q285 482 338 482Q392 482 392 418V-208ZM285 333Q271 353 247 371Q220 391 198 391Q159 391 141 338Q128
300 128 250Q128 194 158 142Q193 83 245 82H285V333Z" />
<glyph unicode="r" glyph-name="r" horiz-adv-x="387" d="M360 431Q360 388 293 388Q290 388 285 388Q280 388 274 389Q268 389 264 389Q260 389 258 389Q215 389 184 350Q155 313 155 269V0H46V423Q46 448 61 465T101 482Q155 482 155 410Q208 478 292 478Q318
478 337 467Q360 455 360 431Z" />
<glyph unicode="s" glyph-name="s" d="M349 149Q349 72 294 28Q243 -13 164 -13Q124 -13 75 11Q18 39 18 74Q18 91 28 102T56 114Q72 114 101 94Q130 75 150 75Q178 75 200 88Q227 104 227 130Q227 161 177 190Q154 204 131 217T84 244Q35 282 35 333Q35 475 208
475H325V393H231Q159 393 159 351Q159 320 208 293Q296 244 299 241Q349 204 349 149Z" />
<glyph unicode="t" glyph-name="t" horiz-adv-x="312" d="M296 18Q296 -16 256 -16Q220 -16 194 -3Q133 27 109 77Q88 120 88 193V393H25V474H88V575H190V474H278V393H190V206Q190 137 217 99Q230 81 269 57Q296 39 296 18Z" />
<glyph unicode="u" glyph-name="u" horiz-adv-x="430" d="M386 419V52Q386 26 372 8Q356 -12 331 -12Q277 -12 277 52Q229 -9 161 -9Q103 -9 69 35Q39 75 39 137V473L148 472V151Q148 81 200 81Q235 81 277 144V419Q277 445 291 462Q306 481 331 481Q343 481 353
476T371 463T382 443T386 419Z" />
<glyph unicode="v" glyph-name="v" horiz-adv-x="371" d="M358 473L225 0H140L21 409Q17 420 17 432Q17 482 63 482Q102 482 120 422L195 173Q209 224 229 298T278 473H358Z" />
<glyph unicode="w" glyph-name="w" horiz-adv-x="535" d="M517 473L425 0H338L271 306L210 46Q197 -9 155 -9Q115 -9 104 42L20 423Q18 431 18 440Q18 460 30 473T61 487Q97 487 111 441Q111 441 124 377L167 175Q167 171 168 176L171 188L184 240L239 473H319L394
177L396 189L445 473H517Z" />
<glyph unicode="x" glyph-name="x" horiz-adv-x="376" d="M372 30Q372 21 368 13T358 0T343 -9T325 -13Q293 -13 277 17L193 168L98 0H11L150 242L23 473H134L209 333L277 453Q293 479 317 479Q332 479 343 469T354 444Q354 433 347 422L252 259L365 56Q372 43 372 30Z" />
<glyph unicode="y" glyph-name="y" horiz-adv-x="404" d="M390 473L277 72Q204 -187 72 -187Q21 -187 21 -149Q21 -140 24 -133T34 -119T48 -110T66 -106Q97 -106 129 -63Q150 -33 166 9L15 473H125L219 181L301 473H390Z" />
<glyph unicode="z" glyph-name="z" horiz-adv-x="361" d="M346 40Q346 0 292 0H97Q25 0 25 64Q25 87 37 105L234 401H37V473H336V399L123 79L294 78Q346 78 346 40Z" />
<glyph unicode="{" glyph-name="braceleft" horiz-adv-x="404" d="M345 -141Q345 -188 273 -188Q218 -188 194 -181Q116 -157 116 -42V109Q116 190 59 203V291Q116 303 116 379V541Q116 617 154 649Q191 680 297 678H323V576Q268 576 248 561Q227 543 227 490V361Q227
316 217 294Q206 264 170 244Q227 213 227 125V-3Q227 -45 236 -62Q252 -92 293 -92Q315 -92 330 -105T345 -141Z" />
<glyph unicode="|" glyph-name="bar" horiz-adv-x="306" d="M209 -167H97V637Q97 665 111 685Q126 707 153 707Q180 707 195 685Q209 666 209 637V-167Z" />
<glyph unicode="}" glyph-name="braceright" horiz-adv-x="422" d="M354 203Q297 190 297 109V-42Q297 -157 219 -181Q195 -188 120 -188Q98 -188 83 -176T68 -141Q68 -119 83 -106T120 -92Q161 -92 177 -62Q187 -45 187 -3V125Q187 213 243 244Q208 264 196 294Q187
316 187 361V490Q187 543 165 561Q146 576 90 576V678H116Q223 680 259 649Q297 617 297 541V379Q297 303 354 291V203Z" />
<glyph unicode="~" glyph-name="asciitilde" horiz-adv-x="509" d="M491 688Q491 679 485 666Q446 571 348 571Q318 571 251 603Q186 635 155 635Q113 635 75 566L19 613Q72 736 160 736Q197 736 266 704Q334 671 360 671Q395 671 417 698Q440 725 455 725Q470
725 480 714T491 688Z" />
</font>
</defs>
</svg>
